<?xml version="1.0" encoding="utf-8"?>
<!-- Generator: Adobe Illustrator 26.1.0, SVG Export Plug-In . SVG Version: 6.00 Build 0)  -->
<svg version="1.1" id="logo" xmlns="http://www.w3.org/2000/svg" xmlns:xlink="http://www.w3.org/1999/xlink" x="0px" y="0px"
	 viewBox="0 0 2728.1 648" style="enable-background:new 0 0 2728.1 648;" xml:space="preserve">
<style type="text/css">
	.st0{fill:#1D1D1B;}
	.st1{fill:#FFFFFF;}
</style>
<g>
	<path class="st0" d="M312.9,137.2h0.6c-1-0.1-1.9-0.2-2.8-0.3C311.4,137,312.1,137.1,312.9,137.2"/>
	<g>
		<path class="st1" d="M429.9,326.9c0.2,0.2,0.4,0.4,0.6,0.6c7,7,10.4,15.3,10.4,25.1c0,9.8-3.5,18.1-10.4,25
			c-6.7,6.7-14.7,10.2-24,10.4h-1.8c-9.4-0.2-17.5-3.7-24.2-10.4c-6.9-6.9-10.3-15.2-10.3-25v-0.9c0.2-9.4,3.6-17.5,10.3-24.2
			c1-1,2.1-1.9,3.2-2.7c-11.6-0.4-23.5-0.7-35.6-0.8h-0.1c-4.1,8.1-6.3,17.1-6.6,26.8v1.7c0,13.3,3.5,25.1,10.6,35.4
			c2.3,3.5,5,6.8,8.2,9.9c10,10,21.6,16,35,18c2.8,0.5,5.7,0.7,8.7,0.8h1.7c5.9,0,11.6-0.7,16.9-2c10.6-2.8,20.1-8.4,28.5-16.8
			c12.5-12.6,18.8-27.7,18.8-45.4c0-8.2-1.4-15.9-4.1-23.1C454,328.5,442.1,327.6,429.9,326.9z"/>
		<path class="st1" d="M264.6,324.8c1,0.8,2,1.7,3,2.7c0.8,0.8,1.5,1.6,2.2,2.4c1.9,2.2,3.4,4.5,4.6,6.9c2.3,4.6,3.4,9.6,3.6,15v0.8
			c0,5.7-1.2,10.9-3.5,15.6c-0.8,1.6-1.7,3-2.7,4.4c-1.2,1.7-2.6,3.4-4.2,4.9c-2.9,2.9-6,5.2-9.4,6.9c-4.5,2.2-9.5,3.4-14.9,3.5
			h-0.8c-5.7,0-11-1.2-15.7-3.6c-3.4-1.7-6.5-4-9.4-6.9c-1.6-1.6-2.9-3.2-4.2-4.9c-4.1-5.9-6.2-12.6-6.2-20.1
			c0-9.8,3.5-18.1,10.3-25.1c0.2-0.2,0.4-0.4,0.7-0.6c-12.2,0.7-24.1,1.6-35.6,2.6c-2.8,7.1-4.2,14.8-4.2,23.1
			c0,17.7,6.3,32.8,18.8,45.4c8.4,8.4,17.9,14,28.7,16.8c0.5,0.1,1.1,0.3,1.6,0.4c4.2,1,8.6,1.5,13.1,1.6h3.8c3-0.1,5.8-0.3,8.6-0.8
			c13.3-2.1,25-8.1,34.9-18c3.2-3.2,5.9-6.5,8.3-9.9c7-10.2,10.5-21.9,10.5-34.9v-0.5v-1.7c-0.3-9.8-2.4-18.7-6.5-26.8
			C288.2,324.1,276.3,324.4,264.6,324.8z"/>
		<path class="st1" d="M324,0C145.1,0,0,145.1,0,324s145.1,324,324,324s324-145.1,324-324S502.9,0,324,0z M451.9,476.7
			c-14.3,17.1-29.8,30.7-46.5,40.8c-21.4,13-44.7,20.4-69.9,22.2l-5,0.2h-2.3l-8.5,0.1c-0.4,0-0.8,0-1.1-0.1
			c-22-0.7-42.5-5.6-61.6-14.6c-4.9-2.3-9.8-4.9-14.6-7.8c-16.6-10.2-32.1-23.8-46.4-40.8c-0.2-0.2-0.3-0.4-0.5-0.6
			c37.1,22.9,79.9,34.3,128.3,34.3c10.8,0,21.2-0.5,31.4-1.6c35.8-4,68.3-14.9,97.2-32.8C452.4,476.1,452.1,476.4,451.9,476.7z
			 M272.1,465.7h101.1c-16.3,9.6-32.7,14.6-49.1,15C306.7,480.9,289.4,475.9,272.1,465.7z M539.7,336.3v1.6v0.6
			c-0.1,0.3-0.1,0.6-0.1,1l-1.1,12.5c0,0.2,0,0.4-0.1,0.7L534,376h0.2c-0.3,1.3-0.7,2.7-1.1,4.1v0.1c0,0.3-0.1,0.5-0.2,0.8
			c-0.1,0.3-0.2,0.7-0.2,1l-0.4,1.3c-1,3.7-2.2,7.3-3.4,10.9l-0.1,0.4c-0.1,0-0.1,0.1-0.1,0.2c-0.1,0.1-0.1,0.1-0.1,0.2
			c-0.2,0.5-0.3,0.9-0.5,1.5h-0.3l-0.2-0.1h-0.4c-1.1-0.1-2.2-0.3-3.3-0.5l-14.5-1.8c-1.6-0.2-3.2-0.4-4.9-0.6
			c-0.3-0.1-0.5-0.1-0.8-0.1c-0.3,0-0.6,0-0.9-0.1c-0.8-0.1-1.6-0.2-2.4-0.2c-1.3-0.2-2.6-0.4-3.9-0.5c-0.5,1.1-1,2.2-1.6,3.2
			c-2.4,4.8-5.1,9.5-8.3,13.9c-3.3,4.5-7,8.9-11.1,13l-0.1,0.1c-2.1,2.1-4.2,4-6.4,5.8c-12.2,10.5-25.9,17.4-41,20.9
			c-2.1,0.5-4.1,0.8-6.3,1.2c-3.2,0.5-6.3,0.9-9.5,1.1c-2.3,0.1-4.7,0.2-7.1,0.2h-0.1c-4.3,0-8.5-0.2-12.6-0.7
			c-17.8-2.2-33.8-8.8-47.9-19.9c-3.3-2.6-6.5-5.4-9.6-8.5l-0.1-0.1c-1.7-1.8-3.3-3.6-4.8-5.3c-0.2-0.2-0.4-0.3-0.5-0.5
			c-2.1-2.4-4.1-5-6-7.5c-1.9,2.6-3.9,5.1-6,7.5c-0.1,0.1-0.2,0.3-0.4,0.5c-1.5,1.7-3.2,3.5-4.9,5.3l-0.1,0.1c-2,2.1-4.1,4-6.3,5.8
			c-1.1,0.9-2.2,1.8-3.3,2.7c-14.1,11.1-30,17.8-47.8,19.9c-4.1,0.5-8.2,0.7-12.4,0.7h-0.2h-2.2c-4.9-0.1-9.7-0.6-14.4-1.3
			c-2.1-0.3-4.2-0.7-6.2-1.2c-15.3-3.4-29-10.4-41.2-20.9c-2.1-1.8-4.2-3.7-6.3-5.8c-1.9-1.9-3.7-3.9-5.4-5.9
			c-2.1-2.4-4-4.8-5.7-7.2c-3.2-4.4-6-9-8.3-13.8c-0.4-0.8-0.9-1.7-1.3-2.6c-0.1-0.2-0.2-0.4-0.3-0.7c-0.5,0-1,0.1-1.5,0.2h-0.2
			c-0.7,0-1.4,0.1-2,0.2h-0.2c-0.8,0.1-1.7,0.2-2.5,0.3c-0.2,0-0.5,0-0.7,0.1h-1c-7,0.8-13.8,1.7-20.6,2.6c-0.7,0.1-1.4,0.2-2.1,0.3
			c-0.1,0.1-0.3,0.1-0.5,0.1c-0.1,0-0.2,0-0.3,0.1c-1.7-5-3.3-10.1-4.7-15.3c-0.1-0.5-0.2-0.9-0.3-1.4l-1.1-4.3
			c-0.1-0.1-0.1-0.2-0.1-0.3l-1.1-4.8c-1.2-5.8-2.2-11.7-2.9-17.8c-0.3-1.9-0.5-3.7-0.6-5.5v-0.4l-0.6-6.6v-1.6
			c-0.1-0.2-0.1-0.4-0.1-0.6c-0.1-0.3-0.1-0.7-0.1-1.1l-0.3-7.3c-0.1-0.3-0.1-0.7-0.1-1.1l0.5-18.7c0-0.5,0-0.9,0.1-1.3l0.1-1.6
			v-0.4c0-0.4,0-0.8,0.1-1.3l0.5-4.6v-1.3c0-0.1,0-0.1,0.1-0.1v-0.5l0.2-1.3c0.2-2.1,0.4-4.2,0.8-6.4l0.1-0.9
			c0.1-0.4,0.1-0.9,0.2-1.3c0-0.2,0-0.4,0.1-0.6l4.5-21.4l3.8-12.8c0.1-0.2,0.2-0.4,0.3-0.5c0-0.1,0-0.3,0.1-0.4v-0.1
			c0.1-0.1,0.1-0.2,0.1-0.3c0.1-0.1,0.1-0.2,0.1-0.3l0.8-2.1c0.2-0.4,0.4-0.9,0.5-1.4c3.3-9.3,7.4-18.3,12.2-26.9
			c1.4-2.5,2.8-5,4.2-7.3c0.2-0.4,0.4-0.8,0.7-1.3c0.1-0.2,0.2-0.4,0.3-0.5c1.9-3,3.8-6,5.9-9c0.3-0.6,0.7-1.1,1.1-1.6
			c1-1.3,1.9-2.7,2.9-3.9c0.1-0.2,0.2-0.3,0.3-0.4c6.8-9.3,14.4-18.3,23-26.8c8.2-8.2,16.8-15.7,25.8-22.3c0.1-0.1,0.1-0.1,0.2-0.2
			c0.1-0.1,0.2-0.1,0.3-0.2c0.1-0.1,0.3-0.1,0.4-0.2c4.1-3.1,8.3-6,12.5-8.6c1.2-0.8,2.3-1.5,3.5-2.2c0.1-0.1,0.3-0.2,0.5-0.3
			c0.2-0.1,0.3-0.2,0.5-0.3c0.1-0.1,0.3-0.1,0.5-0.2c0.1-0.1,0.3-0.2,0.5-0.3c0.1-0.1,0.3-0.2,0.5-0.3c0.2-0.2,0.4-0.3,0.7-0.4
			c0.1-0.1,0.3-0.3,0.6-0.4c1.1-0.6,2.2-1.3,3.4-1.9l4.5-2.3c2.6-1.4,5.2-2.7,7.9-4l0.7-0.3c0.9-0.5,1.8-0.9,2.8-1.3
			c1.9-0.8,3.8-1.6,5.7-2.4h0.1c0.1,0,0.1,0,0.2-0.1v167.5c7.1-0.3,14.4-0.6,21.8-0.9c9.6-0.3,19.4-0.5,29.4-0.7V109.9
			c1.1-0.1,2.2-0.3,3.3-0.4l0.5-0.1h0.3c0.6-0.1,1.2-0.1,1.8-0.2c0.4-0.1,0.9-0.1,1.3-0.2l21.2-1.1h1.6h0.6h0.6l21.1,1
			c0.6,0.1,1.3,0.2,1.9,0.3h0.5c0.2,0.1,0.4,0.1,0.6,0.1l0.3,0.1c0.5,0,0.9,0,1.4,0.1l3.1,0.6v179c10.1,0.1,19.9,0.4,29.6,0.7
			c7.4,0.3,14.7,0.5,21.9,0.9V123.3c0.1,0.1,0.2,0.1,0.3,0.1l7.7,3.4c0.1,0.1,0.3,0.1,0.4,0.2c1.4,0.6,2.8,1.3,4.2,1.9
			c0.3,0.1,0.6,0.3,0.9,0.5c2.1,1,4.2,2.1,6.3,3.2l0.7,0.4c0.7,0.3,1.4,0.7,2.1,1.1v0.1c2,1,4,2.2,6,3.4
			c15.1,9.1,29.4,20.4,42.8,33.8c0.1,0.1,0.3,0.3,0.5,0.5c0.1,0.1,0.3,0.3,0.5,0.5c0.3,0.3,0.5,0.5,0.9,0.9c0.1,0.1,0.2,0.2,0.4,0.4
			c7.7,7.9,14.7,16.2,20.9,24.7c5.7,7.7,10.8,15.7,15.3,24c4.8,8.9,9,18.2,12.4,27.8c0.4,1,0.7,2,1.1,3c3,8.6,5.3,17.5,7.2,26.7
			c0.7,3.1,1.2,6.2,1.6,9.4c0.5,3.4,0.9,6.9,1.3,10.4l0.7,6.8v0.4c0.2,2.8,0.3,5.7,0.5,8.7c0.1,2.9,0.1,5.8,0.1,8.8L539.7,336.3z"/>
		<polygon class="st1" points="504.7,352.6 504.7,353.6 504.8,354.8 504.8,352.6 504.8,350.2 504.7,351.3 		"/>
	</g>
	<path class="st1" d="M972,393.8l74.3-150.8l74.3,150.8H1087l-11.1-22.7h-59.6l-11.1,22.7H972z M1028.1,344.3h36.2l-18.2-37.5
		L1028.1,344.3z M1145.8,251.2h31.5v81.7c0,23.1,9.8,34.6,29.3,34.6c19.4,0,29.1-11.5,29.1-34.6v-81.7h31.5v84.9
		c0,19.2-5.7,34-17.2,44.4c-11.5,10.4-26,15.6-43.4,15.6c-17.6,0-32.1-5.1-43.6-15.4c-11.5-10.4-17.2-25.2-17.2-44.6V251.2z
		 M1349.4,393.8v-114h-47.7v-28.7h126.4v28.7h-47.1v114H1349.4z M1475.7,270.4c14.9-14.3,33-21.5,54-21.5s39.1,7.2,53.8,21.5
		c14.9,14.3,22.3,31.7,22.3,52.4s-7.4,38.3-22.1,52.6c-14.7,14.1-32.7,21.3-54,21.3c-21.1,0-39.1-7.2-54-21.3
		c-14.7-14.3-22.1-31.9-22.1-52.6S1460.9,284.8,1475.7,270.4z M1498,355.2c8.6,8.6,19.2,12.9,31.7,12.9s22.9-4.3,31.5-13.1
		c8.8-8.8,13.1-19.6,13.1-32.1s-4.3-23.1-12.9-31.9s-19.2-13.3-31.7-13.3s-23.1,4.5-31.7,13.3s-12.9,19.4-12.9,31.9
		C1485.1,335.7,1489.4,346.4,1498,355.2z M1635.4,393.8l25.8-149l59.8,100.3l59.8-100.3l25.8,149h-29.5l-12.3-68.2l-43.8,73.7
		l-43.8-73.7l-12.3,68.2H1635.4z M1858.3,270.4c14.9-14.3,33-21.5,54-21.5s39.1,7.2,53.8,21.5c14.9,14.3,22.3,31.7,22.3,52.4
		s-7.4,38.3-22.1,52.6c-14.7,14.1-32.7,21.3-54,21.3c-21.1,0-39.1-7.2-54-21.3c-14.7-14.3-22.1-31.9-22.1-52.6
		S1843.6,284.8,1858.3,270.4z M1880.6,355.2c8.6,8.6,19.2,12.9,31.7,12.9s22.9-4.3,31.5-13.1c8.8-8.8,13.1-19.6,13.1-32.1
		s-4.3-23.1-12.9-31.9s-19.2-13.3-31.7-13.3s-23.1,4.5-31.7,13.3s-12.9,19.4-12.9,31.9C1867.7,335.7,1872,346.4,1880.6,355.2z
		 M2030.1,393.8V251.2h56.7c11.5,0,21.1,3.5,28.9,10.4c8,6.8,11.9,15.6,11.9,26c0,13.7-6.8,24.6-18.2,28.7
		c18.2,3.3,28.7,17.2,28.7,35.4c0,12.1-4.1,22.3-12.5,30.3c-8.2,8-18.4,11.9-30.9,11.9H2030.1z M2061,308.1h20.7
		c9,0,15.4-6.3,15.4-15.1c0-8.4-6.3-14.7-15.1-14.7H2061V308.1z M2061,366.6h27.2c10.6,0,18.4-7.6,18.4-17.4
		c0-9.8-7.8-16.8-18.6-16.8h-27V366.6z M2180,393.8V251.2h31.5v142.7H2180z M2261.1,393.8V251.2h31.5v114h64.7v28.7H2261.1z
		 M2394.2,393.8V251.2h31.5v142.7H2394.2z M2485.6,348.8c7.6,12.5,19.4,18.8,35.8,18.8c14.5,0,21.3-6.5,21.3-14.1
		c0-5.3-3.1-9-7.8-11.9c-2.7-1.8-8.4-4.3-12.3-5.3c-3.5-1.4-11.7-4.1-15.8-5.7c-22.3-8.2-34.6-19.9-34.6-41.3
		c0-12.3,4.5-22.1,13.7-29.3c9.2-7.4,20.5-11.1,33.8-11.1c20.7,0,36.4,7.8,47.5,23.3l-21.1,16c-5.7-7.4-14.3-11.1-25.6-11.1
		c-10.4,0-17.2,4.9-17.2,11.7c0,4.7,1.2,7.6,5.5,10.2c2.3,1.2,4.5,2.3,6.3,3.1l10.2,3.5c4.7,1.6,8.8,3.1,12.3,4.5
		c26,9.8,36.4,21.9,36.4,42.4c0,26.4-18,43.6-53,43.6c-28.9,0-48.9-12.9-58.5-31.5L2485.6,348.8z M2649.4,393.8v-114h-47.7v-28.7
		h126.4v28.7h-47.1v114H2649.4z"/>
</g>
</svg>
