<?xml version="1.0" encoding="utf-8"?>
<!-- Generator: Adobe Illustrator 26.1.0, SVG Export Plug-In . SVG Version: 6.00 Build 0)  -->
<svg version="1.1" id="logo" xmlns="http://www.w3.org/2000/svg" xmlns:xlink="http://www.w3.org/1999/xlink" x="0px" y="0px"
	 viewBox="0 0 2404.1 432" style="enable-background:new 0 0 2404.1 432;" xml:space="preserve">
<style type="text/css">
	.st0{fill:#1D1D1B;}
</style>
<g>
	<path class="st0" d="M95.8,29.2h0.6c-1-0.1-1.9-0.2-2.8-0.3C94.3,29,95,29.1,95.8,29.2"/>
	<g>
		<path d="M396.7,244.7v-1.3l0.1-1.1L396.7,244.7l0.1,2.2l-0.1-1.2V244.7z M357.6,221.6c2.7,7.1,4.1,14.8,4.1,23.1
			c0,17.7-6.3,32.8-18.8,45.4c-8.4,8.4-17.9,14-28.5,16.8c-5.3,1.4-11,2-16.9,2h-1.7c-3-0.1-5.9-0.3-8.7-0.8c-13.3-2.1-25-8.1-35-18
			c-3.2-3.2-5.9-6.5-8.2-9.9c-7.1-10.4-10.6-22.2-10.6-35.4v-1.7c0.3-9.8,2.5-18.7,6.6-26.8h0.1c12.1,0.1,24,0.4,35.6,0.8
			c-1.1,0.8-2.1,1.7-3.2,2.7c-6.7,6.8-10.1,14.8-10.3,24.2v0.9c0,9.8,3.4,18.1,10.3,25c6.8,6.7,14.8,10.2,24.2,10.4h1.8
			c9.3-0.2,17.3-3.7,24-10.4c7-6.9,10.4-15.2,10.4-25s-3.5-18.1-10.4-25.1c-0.2-0.2-0.4-0.4-0.6-0.6
			C334.1,219.7,346,220.6,357.6,221.6 M110.2,218.9c-0.2,0.2-0.5,0.4-0.7,0.6c-6.9,7-10.3,15.3-10.3,25.1c0,7.5,2.1,14.2,6.2,20.1
			c1.2,1.7,2.6,3.4,4.2,4.9c2.9,2.9,6,5.2,9.4,6.9c4.8,2.4,10,3.6,15.7,3.6h0.8c5.4-0.1,10.4-1.3,14.9-3.5c3.3-1.7,6.5-4,9.4-6.9
			c1.6-1.6,3-3.2,4.2-4.9c1-1.4,1.9-2.9,2.7-4.4c2.3-4.8,3.5-10,3.5-15.6V244c-0.1-5.4-1.3-10.4-3.6-15c-1.2-2.4-2.8-4.8-4.6-6.9
			c-0.7-0.8-1.5-1.6-2.2-2.4c-1-1-2-1.9-3-2.7c11.7-0.4,23.6-0.7,35.7-0.8c4.1,8.1,6.2,17.1,6.5,26.8v1.7v0.5
			c-0.1,13.1-3.6,24.7-10.5,34.9c-2.4,3.5-5.1,6.8-8.3,9.9c-10,10-21.6,16-34.9,18c-2.8,0.5-5.6,0.7-8.6,0.8h-3.8
			c-4.6-0.1-9-0.7-13.1-1.6c-0.6-0.1-1.1-0.3-1.6-0.4c-10.8-2.8-20.3-8.4-28.7-16.8c-12.6-12.6-18.8-27.7-18.8-45.4
			c0-8.2,1.4-15.9,4.2-23.1C86.1,220.6,97.9,219.7,110.2,218.9 M297.8,15.4c-0.1,0-0.2,0-0.3-0.1v167.4c-7.2-0.3-14.5-0.6-21.9-0.9
			c-9.7-0.3-19.6-0.5-29.6-0.7V2.2l-3.1-0.6c-0.5-0.1-0.9-0.1-1.4-0.1l-0.3-0.1c-0.2,0-0.4,0-0.6-0.1h-0.5c-0.7-0.1-1.3-0.2-1.9-0.3
			l-21.1-1h-0.6H216h-1.6l-21.2,1c-0.5,0.1-0.9,0.1-1.3,0.2c-0.7,0.1-1.3,0.1-1.8,0.2h-0.3l-0.5,0.1c-1.1,0.1-2.2,0.3-3.3,0.4v179.2
			c-10,0.1-19.8,0.4-29.4,0.7c-7.4,0.3-14.7,0.5-21.8,0.9V15.2c-0.1,0.1-0.1,0.1-0.2,0.1h-0.1c-1.9,0.8-3.8,1.6-5.7,2.4
			c-1,0.4-1.9,0.8-2.8,1.3l-0.7,0.3c-2.7,1.2-5.3,2.5-7.9,4l-4.5,2.3c-1.2,0.6-2.3,1.3-3.4,1.9c-0.3,0.1-0.5,0.3-0.6,0.4
			c-0.3,0.1-0.5,0.2-0.7,0.4c-0.2,0.1-0.4,0.2-0.5,0.3c-0.2,0.1-0.4,0.2-0.5,0.3c-0.2,0.1-0.4,0.1-0.5,0.2s-0.3,0.2-0.5,0.3
			c-0.2,0.1-0.4,0.2-0.5,0.3c-1.2,0.7-2.3,1.4-3.5,2.2c-4.2,2.6-8.4,5.5-12.5,8.6c-0.1,0.1-0.3,0.1-0.4,0.2
			c-0.1,0.1-0.2,0.1-0.3,0.2c-0.1,0.1-0.1,0.1-0.2,0.2C80.1,47.6,71.5,55,63.3,63.3c-8.6,8.6-16.2,17.5-23,26.8
			c-0.1,0.1-0.2,0.2-0.3,0.4c-1,1.3-1.9,2.6-2.9,3.9c-0.4,0.5-0.8,1.1-1.1,1.6c-2.1,3-4,6-5.9,9c-0.1,0.1-0.2,0.3-0.3,0.5
			c-0.3,0.4-0.5,0.9-0.7,1.3c-1.5,2.4-2.9,4.8-4.2,7.3c-4.8,8.7-8.8,17.7-12.2,26.9c-0.1,0.5-0.3,1-0.5,1.4l-0.8,2.1
			c0,0.1,0,0.2-0.1,0.3c0,0.1,0,0.2-0.1,0.3v0.1c-0.1,0.1-0.1,0.3-0.1,0.4c-0.1,0.1-0.2,0.3-0.3,0.5L7.2,159l-4.5,21.4
			c-0.1,0.2-0.1,0.4-0.1,0.6c-0.1,0.5-0.1,0.9-0.2,1.3l-0.1,0.9c-0.3,2.1-0.6,4.3-0.8,6.4l-0.2,1.3v0.5c-0.1,0-0.1,0-0.1,0.1v1.3
			l-0.5,4.6c-0.1,0.4-0.1,0.9-0.1,1.3v0.4l-0.1,1.6c-0.1,0.4-0.1,0.8-0.1,1.3L0,220.4c0,0.4,0,0.8,0.1,1.1l0.3,7.3
			c0,0.4,0,0.8,0.1,1.1c0,0.2,0,0.4,0.1,0.6v1.6l0.6,6.6v0.4c0.1,1.8,0.3,3.6,0.6,5.5c0.7,6.1,1.7,12,2.9,17.8l1.1,4.8
			c0,0.1,0,0.2,0.1,0.3l1.1,4.3c0.1,0.5,0.2,0.9,0.3,1.4c1.4,5.1,3,10.2,4.7,15.3c0.1-0.1,0.2-0.1,0.3-0.1c0.2,0,0.3,0,0.5-0.1
			c0.7-0.1,1.4-0.2,2.1-0.3c6.8-0.9,13.6-1.8,20.6-2.6h1c0.2-0.1,0.4-0.1,0.7-0.1c0.8-0.1,1.7-0.2,2.5-0.3h0.2
			c0.6-0.1,1.3-0.2,2-0.2h0.2c0.5-0.1,0.9-0.2,1.5-0.2c0.1,0.3,0.2,0.5,0.3,0.7c0.4,0.9,0.8,1.8,1.3,2.6c2.3,4.8,5.1,9.4,8.3,13.8
			c1.7,2.5,3.6,4.9,5.7,7.2c1.7,2,3.5,4,5.4,5.9c2.1,2.1,4.1,4,6.3,5.8c12.2,10.5,26,17.4,41.2,20.9c2,0.5,4.1,0.8,6.2,1.2
			c4.7,0.7,9.5,1.1,14.4,1.3h2.2h0.2c4.2,0,8.4-0.2,12.4-0.7c17.8-2.1,33.7-8.7,47.8-19.9c1.1-0.9,2.2-1.8,3.3-2.7
			c2.2-1.8,4.3-3.7,6.3-5.8l0.1-0.1c1.7-1.8,3.4-3.6,4.9-5.3c0.1-0.2,0.2-0.3,0.4-0.5c2.1-2.4,4.1-5,6-7.5c1.9,2.6,3.9,5.1,6,7.5
			c0.1,0.1,0.3,0.3,0.5,0.5c1.5,1.7,3.1,3.5,4.8,5.3l0.1,0.1c3.1,3.1,6.3,5.9,9.6,8.5c14.1,11.1,30.1,17.7,47.9,19.9
			c4.1,0.5,8.3,0.7,12.6,0.7h0.1c2.4,0,4.7-0.1,7.1-0.2c3.2-0.2,6.3-0.5,9.5-1.1c2.1-0.3,4.2-0.7,6.3-1.2
			c15.1-3.4,28.8-10.4,41-20.9c2.2-1.8,4.3-3.7,6.4-5.8l0.1-0.1c4.1-4.2,7.8-8.5,11.1-13c3.2-4.4,5.9-9.1,8.3-13.9
			c0.5-1,1-2.1,1.6-3.2c1.3,0.1,2.6,0.3,3.9,0.5c0.8,0,1.6,0.1,2.4,0.2c0.3,0.1,0.5,0.1,0.9,0.1c0.3,0,0.5,0,0.8,0.1
			c1.7,0.2,3.3,0.4,4.9,0.6l14.5,1.8c1.1,0.2,2.2,0.4,3.3,0.5h0.4l0.2,0.1h0.3c0.1-0.5,0.3-1,0.5-1.5c0-0.1,0-0.1,0.1-0.2
			c0-0.1,0-0.2,0.1-0.2l0.1-0.4c1.2-3.6,2.3-7.2,3.4-10.9l0.4-1.3c0-0.3,0.1-0.6,0.2-1c0.1-0.2,0.2-0.5,0.2-0.8v-0.1
			c0.4-1.4,0.7-2.8,1.1-4.1h-1l4.3-23.4c0.1-0.3,0.1-0.5,0.1-0.7l1.1-12.5c0-0.3,0-0.6,0.1-1v-0.6v-1.6L432,216c0-3,0-5.9-0.1-8.8
			c-0.1-3-0.3-5.9-0.5-8.7v-0.4l-0.7-6.8c-0.3-3.5-0.7-7-1.3-10.4c-0.4-3.2-1-6.3-1.6-9.4c-1.8-9.1-4.2-18-7.2-26.7
			c-0.3-1-0.7-2-1.1-3c-3.5-9.6-7.6-18.9-12.4-27.8c-4.5-8.2-9.6-16.2-15.3-24c-6.2-8.6-13.2-16.8-20.9-24.7
			c-0.2-0.2-0.3-0.3-0.4-0.4c-0.3-0.3-0.6-0.6-0.9-0.9c-0.2-0.2-0.4-0.4-0.5-0.5c-0.2-0.2-0.4-0.4-0.5-0.5
			c-13.4-13.4-27.7-24.7-42.8-33.8c-2-1.2-4-2.3-6-3.4V26c-0.7-0.4-1.4-0.8-2.1-1.1l-0.7-0.4c-2.1-1.1-4.2-2.2-6.3-3.2
			c-0.3-0.2-0.5-0.4-0.9-0.5c-1.4-0.7-2.7-1.3-4.2-1.9c-0.1-0.1-0.2-0.1-0.4-0.2L297.8,15.4z M87.7,368.1c0.1,0.2,0.3,0.4,0.5,0.6
			c14.3,17,29.7,30.6,46.4,40.8c4.8,2.9,9.6,5.5,14.6,7.8c19.1,9,39.7,13.9,61.6,14.6c0.3,0.1,0.7,0.1,1.1,0.1l8.5-0.1h2.3l5-0.2
			c25.2-1.8,48.5-9.2,69.9-22.2c16.7-10.2,32.2-23.8,46.5-40.8c0.2-0.3,0.4-0.5,0.7-0.8c-29,17.9-61.4,28.8-97.2,32.8
			c-10.2,1.1-20.6,1.6-31.4,1.6C167.6,402.4,124.8,390.9,87.7,368.1 M164.1,357.8c17.3,10.2,34.6,15.2,52,15
			c16.4-0.3,32.8-5.3,49.1-15H164.1z"/>
		<path d="M648,285.8L722.3,135l74.3,150.8H763l-11-22.7h-59.6l-11.1,22.7H648L648,285.8z M704.1,236.4h36.2l-18.2-37.5L704.1,236.4
			z M821.8,143.2h31.5v81.7c0,23.1,9.8,34.6,29.3,34.6c19.4,0,29.1-11.5,29.1-34.6v-81.7h31.5v84.9c0,19.2-5.7,34-17.2,44.4
			s-26,15.6-43.4,15.6c-17.6,0-32.1-5.1-43.6-15.4c-11.5-10.4-17.2-25.2-17.2-44.6L821.8,143.2L821.8,143.2z M1025.4,285.8v-114
			h-47.7v-28.7h126.4v28.7H1057v114H1025.4z M1151.7,162.4c14.9-14.3,33-21.5,54-21.5s39.1,7.2,53.8,21.5
			c14.9,14.3,22.3,31.7,22.3,52.4s-7.4,38.3-22.1,52.6c-14.7,14.1-32.7,21.3-54,21.3c-21.1,0-39.1-7.2-54-21.3
			c-14.7-14.3-22.1-31.9-22.1-52.6S1136.9,176.9,1151.7,162.4z M1174,247.2c8.6,8.6,19.2,12.9,31.7,12.9s22.9-4.3,31.5-13.1
			c8.8-8.8,13.1-19.6,13.1-32.1s-4.3-23.1-12.9-31.9c-8.6-8.8-19.2-13.3-31.7-13.3s-23.1,4.5-31.7,13.3s-12.9,19.4-12.9,31.9
			C1161.1,227.8,1165.4,238.4,1174,247.2z M1311.4,285.8l25.8-149l59.8,100.3l59.8-100.3l25.8,149h-29.5l-12.3-68.2l-43.8,73.7
			l-43.8-73.7l-12.3,68.2H1311.4z M1534.3,162.4c14.9-14.3,33-21.5,54-21.5s39.1,7.2,53.8,21.5c14.9,14.3,22.3,31.7,22.3,52.4
			s-7.4,38.3-22.1,52.6c-14.7,14.1-32.7,21.3-54,21.3c-21.1,0-39.1-7.2-54-21.3c-14.7-14.3-22.1-31.9-22.1-52.6
			S1519.6,176.9,1534.3,162.4z M1556.6,247.2c8.6,8.6,19.2,12.9,31.7,12.9s22.9-4.3,31.5-13.1c8.8-8.8,13.1-19.6,13.1-32.1
			s-4.3-23.1-12.9-31.9c-8.6-8.8-19.2-13.3-31.7-13.3s-23.1,4.5-31.7,13.3s-12.9,19.4-12.9,31.9
			C1543.7,227.8,1548,238.4,1556.6,247.2z M1706.1,285.8V143.2h56.7c11.5,0,21.1,3.5,28.9,10.4c8,6.8,11.9,15.6,11.9,26
			c0,13.7-6.8,24.6-18.2,28.7c18.2,3.3,28.7,17.2,28.7,35.4c0,12.1-4.1,22.3-12.5,30.3c-8.2,8-18.4,11.9-30.9,11.9L1706.1,285.8
			L1706.1,285.8z M1737,200.2h20.7c9,0,15.4-6.3,15.4-15.1c0-8.4-6.3-14.7-15.1-14.7h-21V200.2z M1737,258.6h27.2
			c10.6,0,18.4-7.6,18.4-17.4c0-9.8-7.8-16.8-18.6-16.8h-27V258.6z M1856,285.8V143.2h31.5v142.7H1856V285.8z M1937.1,285.8V143.2
			h31.5v114h64.7V286h-96.2V285.8z M2070.2,285.8V143.2h31.5v142.7h-31.5V285.8z M2161.6,240.9c7.6,12.5,19.4,18.8,35.8,18.8
			c14.5,0,21.3-6.5,21.3-14.1c0-5.3-3.1-9-7.8-11.9c-2.7-1.8-8.4-4.3-12.3-5.3c-3.5-1.4-11.7-4.1-15.8-5.7
			c-22.3-8.2-34.6-19.9-34.6-41.3c0-12.3,4.5-22.1,13.7-29.3c9.2-7.4,20.5-11.1,33.8-11.1c20.7,0,36.4,7.8,47.5,23.3l-21.1,16
			c-5.7-7.4-14.3-11.1-25.6-11.1c-10.4,0-17.2,4.9-17.2,11.7c0,4.7,1.2,7.6,5.5,10.2c2.3,1.2,4.5,2.3,6.3,3.1l10.2,3.5
			c4.7,1.6,8.8,3.1,12.3,4.5c26,9.8,36.4,21.9,36.4,42.4c0,26.4-18,43.6-53,43.6c-28.9,0-48.9-12.9-58.5-31.5L2161.6,240.9z
			 M2325.4,285.8v-114h-47.7v-28.7h126.4v28.7H2357v114H2325.4z"/>
	</g>
</g>
</svg>
