<?xml version="1.0" encoding="utf-8"?>
<!-- Generator: Adobe Illustrator 26.0.3, SVG Export Plug-In . SVG Version: 6.00 Build 0)  -->
<svg version="1.1" id="Layer_1" xmlns="http://www.w3.org/2000/svg" xmlns:xlink="http://www.w3.org/1999/xlink" x="0px" y="0px"
	 viewBox="0 0 258.31 127.95" style="enable-background:new 0 0 258.31 127.95;" xml:space="preserve">
<style type="text/css">
	.st0{fill:#FFFFFF;}
	.st1{fill:none;stroke:#FFFFFF;stroke-width:0.2891;stroke-miterlimit:10;}
</style>
<g>
	<g>
		<path d="M246.28,36.71c-0.54-0.58-1.23-0.97-1.98-1.16l0.05-0.3c0.32-1.86-0.18-3.71-1.38-5.09l-0.01,0.02c0,0,0,0,0,0
			c-1.16-1.33-2.85-2.04-4.62-2.06c-2.42,0.01-4.72,0.59-6.59,1.09c-0.66,0.17-1.29,0.34-1.83,0.44c-1.01,0.19-1.92,0.65-2.65,1.3
			c-0.98-0.42-2.07-0.54-3.14-0.34l-0.06,0.01c0.2-0.49,0.34-1.01,0.4-1.56l0.37-2.3c0-0.01,0-0.02,0-0.04
			c0.28-1.72-0.26-3.56-1.48-4.8c-0.21-0.22-0.45-0.42-0.69-0.6c-4.25-3.31-10.73-2.75-15.62-0.09c-3.29-1.6-7.24-1.65-11.13-0.06
			c-2.93,1.19-5.63,3.21-7.82,5.72c-3.52,3.08-6.2,7.37-7.28,11.89c-2.26-0.02-4.88,0.04-7.5,0.52c-0.05,0.01-0.1,0.02-0.15,0.03
			c0.89-0.97,1.49-2.22,1.64-3.56l1.02-6.49c0.32-1.95-0.3-3.91-1.66-5.26c-1.34-1.33-3.27-1.92-5.13-1.57
			c-2.35,0.43-4.97,0.89-7.73,1.38c-8.43,1.49-17.97,3.18-25.52,4.94c-0.31,0.07-0.61,0.17-0.9,0.3c-1.32,0.56-2.36,1.48-3.04,2.63
			c-1.64,0.99-2.73,2.6-3.02,4.55c-0.02,0.11-0.01,0.09-0.02,0.2c-0.06,0.42-0.41,2.21-0.62,3.27c-0.67,3.41-0.87,4.38-0.5,5.57
			c0.18,0.74,0.52,1.43,0.96,2.04c-1.06,0.2-2.06,0.46-2.96,0.69c-0.66,0.17-1.29,0.35-1.83,0.45c-1.01,0.18-1.92,0.64-2.66,1.3
			c-0.98-0.41-2.07-0.54-3.14-0.34l-0.06,0.01c0.2-0.49,0.34-1,0.4-1.55l0.37-2.31c0-0.02,0-0.03,0.01-0.05
			c0.28-1.72-0.27-3.55-1.49-4.8c-0.21-0.22-0.44-0.42-0.69-0.59c-4.25-3.31-10.73-2.75-15.62-0.09c-3.3-1.6-7.24-1.65-11.13-0.06
			c-2.93,1.19-5.63,3.21-7.82,5.72c-3.52,3.08-6.2,7.37-7.28,11.89c-2.26-0.02-4.88,0.04-7.5,0.52c-6.71,1.23-12.09,4.17-15.81,8.47
			c-2.9,2.55-5.07,5.75-6.4,9.48l3.55-22.9c0.18-1.21,0.53-3.59-0.98-5.7c-2.78-4.37-8.78-3.54-10.97-3.2
			c-1.73,0.2-11.51,1.62-17.5,8.64c-1.14,0.99-2.22,2.11-3.17,3.42c-2.23,3.1-3.08,6.58-2.46,10.08c0.9,5.03,4.64,8.66,6.62,10.25
			l-2.44,16.04c-0.19,1.2-0.54,3.38,0.76,5.47c1.29,2.2,3.62,3.46,6.24,3.46c0.5,0,1.01-0.05,1.52-0.14l1.45-0.27
			c7.16-1.31,10.75-1.97,13.57-2.48l5.37-0.98c1.07-0.19,2.03-0.69,2.84-1.38c1.16,0.5,2.44,0.77,3.79,0.77
			c0.68,0,1.38-0.06,2.09-0.19c2.53-0.46,4.52-1.58,6.1-2.89c1.4,0.7,3.33,1.16,5.85,0.7c0.7-0.13,1.39-0.32,2.08-0.55
			c0.15,1.16,0.61,2.47,1.76,3.64c0.73,0.74,2.23,1.85,4.62,1.85c0.39,0,0.8-0.03,1.23-0.09c2.12-0.32,6.66-1.98,9.63-4.58
			c0.09,0.9,0.29,1.71,0.54,2.41c1.34,3.76,4.82,6.54,9.54,7.62c2.15,0.49,4.19,0.68,6.03,0.68c4.79,0,8.3-1.25,9.21-1.62
			c6.18-2.23,11.06-5.37,14.48-9.19c4.2-3.72,6.81-8.25,7.59-13.34l0.41-2.61c1.5,2.41,4.08,3.62,7.76,3.62
			c2.22,0,4.85-0.44,7.86-1.33c0.39-0.12,0.76-0.26,1.1-0.41c0.11,1.12,0.57,2.08,1.37,2.72c0.67,0.54,1.53,0.83,2.43,0.83
			c0.31,0,0.62-0.03,0.94-0.1c0.72-0.16,1.37-0.47,1.93-0.89c0.26,0.11,0.52,0.19,0.81,0.19c0.14,0,0.28-0.01,0.43-0.05l1.02-0.22
			c0.49-0.11,0.91-0.39,1.2-0.78c0.42,0.23,0.92,0.32,1.42,0.21l1.01-0.22c0.25-0.05,0.48-0.17,0.68-0.32
			c0.11,0.02,0.22,0.06,0.33,0.06c0.14,0,0.28-0.01,0.43-0.05l0.97-0.21c0.49-0.11,0.9-0.38,1.19-0.75
			c0.42,0.24,0.93,0.31,1.41,0.21l0.29-0.06c0.36-0.08,0.66-0.27,0.92-0.51c0.21,0.07,0.42,0.11,0.64,0.11
			c0.14,0,0.29-0.01,0.43-0.05l1.7-0.37c1.21-0.26,2.12-0.92,2.77-1.75c0,0,0.01-0.01,0.01-0.01c0.09,0.12,0.2,0.23,0.32,0.32
			c0.36,0.29,0.81,0.45,1.27,0.45c0.14,0,0.29-0.01,0.43-0.05l0.32-0.07c0.84,0.66,2.16,1.36,4.06,1.36c0.39,0,0.8-0.03,1.23-0.09
			c2.13-0.32,6.66-1.98,9.63-4.57c0.09,0.9,0.29,1.71,0.54,2.41c1.34,3.76,4.82,6.54,9.54,7.62c2.15,0.49,4.19,0.68,6.03,0.68
			c4.79,0,8.29-1.25,9.21-1.62c6.18-2.23,11.07-5.37,14.49-9.2c4.19-3.72,6.8-8.24,7.58-13.33l0.01-0.05l0,0.02l2.87-18.41
			c0.98-0.07,1.91-0.46,2.62-1.17c0.08-0.08,0.15-0.18,0.23-0.27c0.13-0.1,0.26-0.19,0.38-0.31c0.78-0.78,1.23-1.81,1.25-2.93
			C247.43,38.56,247.03,37.51,246.28,36.71z"/>
		<g>
			<g>
				<g>
					<g>
						<g>
							<path class="st0" d="M37.32,49.7c2.42-0.37,5.02-0.48,5.73,0.86c0.3,0.31,0.23,0.92,0.1,1.82l-4.99,32.14
								c5.03-1.29,5.93-1.52,10.9-2.43c0.3-0.06,0.48,0.21,0.41,0.59l-1.06,6.75c-0.07,0.38-0.31,0.72-0.61,0.78
								c-5.03,0.92-7.08,1.28-18.95,3.46c-0.48,0.09-0.97,0.18-1.45,0.27c-1.03,0.19-1.75-0.12-2.1-0.79
								c-0.24-0.33-0.17-0.93-0.04-1.76l5.27-34.68c0.13-0.83-0.41-0.59-0.78-0.45c0,0-6.8,3.88-2.2,9.71
								c-0.22,0.01-1.04,4.85-1.04,4.85s-9.2-6.17-3.94-13.47C27.33,50.73,37.32,49.7,37.32,49.7z"/>
							<path class="st0" d="M79.07,79.12c0,0.06-0.05,0.12-0.09,0.18c-3.37,4.6-7.13,7.27-10.54,7.9c-3.59,0.66-4.27-2.25-4.33-4.73
								c-1.53,2.21-3.4,6.15-7.62,6.92c-4.27,0.78-6.21-2.78-5.11-9.94c1.2-7.73,6.5-14.06,16.81-15.95
								c2.09-0.38,4.31-0.46,6.85-0.43c0.36-0.01,0.63,0.27,0.58,0.78l-2.05,13.25c-0.4,2.34,0.23,2.94,1.09,2.78
								c1.14-0.21,3.16-2.01,4.44-3.41c0.05-0.06,0.14-0.08,0.18-0.09c0.09-0.02,0.18,0.08,0.18,0.24L79.07,79.12z M66.14,67.63
								c-3.32,0.61-5.66,3.19-6.51,8.65c-0.8,5.45,1.28,5.29,1.97,5.16s1.6-0.68,2.75-2.05L66.14,67.63z"/>
							<path class="st0" d="M100.87,46.9c3.18-3.51,9.58-4.74,12.45-2.34c0.05-0.01,0,0.11,0,0.17l-0.4,2.5
								c0,0.17-0.05,0.29-0.19,0.31c-0.05,0.01-0.14-0.03-0.18-0.02c-1.63-0.36-5.71-0.33-6.85,7.11l-0.4,2.72l4.18-0.76l-0.66,3.92
								l-4.12,0.65l-2.54,16.37c-0.1,0.68-0.24,1.15-0.52,1.48c-1.39,1.97-5.9,3.84-7.72,4.12c-1.64,0.24-1.44-0.9-1.29-1.86
								l2.89-18.43l-5.54,1.02l-3.49,22.57c-0.1,0.68-0.24,1.15-0.52,1.48c-1.39,1.97-5.9,3.84-7.67,4.11
								c-1.64,0.24-1.44-0.9-1.29-1.86l3.79-24.61l0.6-3.81l0.6-4.03c1.43-9.08,11.63-16.56,17.62-12.08l-2.66,3.28
								c-2.14-0.32-4.83,1.07-5.73,6.83l-0.65,4.32l5.54-1.02l0.35-2.44c0.35-2.33,1.07-4.83,2.37-7.06
								C99.73,48.21,100.87,46.9,100.87,46.9z"/>
							<path class="st0" d="M170.41,28.42l-1.05,6.69c-0.01,0.37-0.31,0.71-0.61,0.77c-2.34,0.43-6,1.1-10.57,1.94l-5.08,32.76
								c-0.2,1.28-0.28,2.61-2.56,3.32c-2.65,0.78-8.23,2.02-9.4-0.03c-0.18-0.33-0.11-0.93,0.02-1.76l4.95-32
								c-3.3,0.61-6.78,1.24-10.45,1.92c-0.42,0.15-0.54-0.12-0.53-0.34c-0.06-0.14,1.19-5.99,1.26-6.8
								c0.07-0.45,0.31-0.64,0.61-0.77c9.88-2.3,23.58-4.54,33-6.27C170.3,27.78,170.48,28.04,170.41,28.42z"/>
						</g>
						<g>
							<path class="st0" d="M107.08,91.43c6.14-0.77,8.89-3.69,8.89-3.69c2.32-2.79,2.77-4.25,3.13-5.59l0.87-3.34l0.45-3.07
								l0.55-3.3c-1.48,2.26-3.34,5.58-7.25,6.3c-4.23,0.78-6.21-2.78-5.11-9.94l2.49-12.49l7.93-1.49l-2.05,12.36
								c-0.44,2.58,0.73,3.33,1.38,3.54c1.31,0.43,3.02-2.17,3.02-2.17c2.26-8.16,3.42-14.69,3.42-14.69
								c2.05-0.37,4.98-1.48,7.47-1.44c0.41-0.02,0.68,0.26,0.58,0.78l-4.29,27.58c-1.45,9.49-10.97,14.12-16.43,16.07
								c0,0-5.36,2.26-12.07,0.72c-4.42-1.01-8.79-4.66-3.38-11.63c6.41-8.27,20.3-4.74,20.3-4.74s0.45,3.41-3.54,4.15
								c0,0-8.24-2.26-10.77,3.63C102.66,88.97,101.52,92.13,107.08,91.43z"/>
						</g>
						<path class="st0" d="M185.17,60.31c0,0.06-0.05,0.12-0.09,0.18c-3.37,4.6-7.13,7.27-10.54,7.9c-3.59,0.66-4.27-2.25-4.33-4.73
							c-1.53,2.21-3.4,6.15-7.62,6.92c-4.27,0.78-6.21-2.78-5.11-9.94c1.2-7.73,6.5-14.06,16.81-15.95
							c2.09-0.38,4.31-0.46,6.85-0.43c0.36-0.01,0.63,0.27,0.58,0.78l-2.05,13.25c-0.4,2.34,0.23,2.94,1.09,2.78
							c1.14-0.21,3.16-2.01,4.44-3.41c0.05-0.06,0.14-0.08,0.18-0.09c0.09-0.02,0.18,0.08,0.18,0.24L185.17,60.31z M172.24,48.81
							c-3.32,0.61-5.66,3.19-6.51,8.65c-0.8,5.45,1.28,5.29,1.97,5.16c0.68-0.12,1.6-0.68,2.75-2.05L172.24,48.81z"/>
						<path class="st0" d="M206.97,28.08c3.18-3.51,9.58-4.74,12.45-2.34c0.05-0.01,0,0.11,0,0.17l-0.4,2.5
							c0,0.17-0.05,0.28-0.19,0.31c-0.05,0.01-0.14-0.03-0.18-0.02c-1.63-0.36-5.71-0.33-6.85,7.11l-0.4,2.72l4.18-0.76l-0.66,3.92
							l-4.12,0.65l-2.54,16.37c-0.1,0.68-0.24,1.15-0.52,1.48c-1.39,1.97-5.9,3.84-7.72,4.12c-1.63,0.24-1.44-0.9-1.29-1.86
							l2.89-18.43l-5.54,1.02l-3.49,22.57c-0.1,0.68-0.24,1.15-0.52,1.48c-1.39,1.97-5.9,3.84-7.67,4.11
							c-1.63,0.24-1.44-0.9-1.29-1.86l3.79-24.61l0.6-3.81l0.6-4.03c1.43-9.08,11.63-16.56,17.62-12.08l-2.66,3.28
							c-2.14-0.32-4.83,1.07-5.72,6.83l-0.65,4.32l5.54-1.02l0.35-2.44c0.35-2.33,1.07-4.83,2.37-7.06
							C205.83,29.39,206.97,28.08,206.97,28.08z"/>
						<g>
							<path class="st0" d="M213.18,72.61c6.14-0.77,8.89-3.69,8.89-3.69c2.32-2.79,2.77-4.25,3.13-5.59l0.87-3.34l0.45-3.07
								l0.55-3.3c-1.48,2.26-3.34,5.58-7.25,6.3c-4.23,0.78-6.21-2.78-5.11-9.94l2.49-12.49l7.93-1.49l-2.05,12.36
								c-0.44,2.58,0.73,3.33,1.38,3.54c1.31,0.43,3.02-2.17,3.02-2.17c2.26-8.16,3.42-14.69,3.42-14.69
								c2.04-0.37,4.98-1.48,7.47-1.44c0.41-0.02,0.68,0.26,0.58,0.78l-4.29,27.58c-1.45,9.49-10.97,14.12-16.43,16.07
								c0,0-5.36,2.26-12.07,0.72c-4.42-1.01-8.79-4.66-3.38-11.63c6.41-8.27,20.3-4.74,20.3-4.74s0.45,3.41-3.54,4.15
								c0,0-8.24-2.26-10.77,3.63C208.76,70.15,207.61,73.31,213.18,72.61z"/>
						</g>
					</g>
				</g>
			</g>
			<g>
				<g>
					<path class="st1" d="M153.88,79.5c0-0.4,0.07-0.77,0.2-1.11c0.13-0.34,0.31-0.64,0.53-0.9c0.22-0.26,0.47-0.47,0.75-0.64
						c0.28-0.17,0.57-0.28,0.87-0.34c0.23-0.05,0.46-0.07,0.69-0.05c0.23,0.02,0.44,0.08,0.63,0.17c0.19,0.1,0.36,0.24,0.5,0.43
						c0.14,0.19,0.24,0.42,0.29,0.71l-0.95,0.2c-0.1-0.26-0.25-0.42-0.45-0.5c-0.2-0.08-0.44-0.09-0.71-0.03
						c-0.2,0.04-0.39,0.12-0.56,0.23c-0.17,0.11-0.31,0.25-0.43,0.41c-0.12,0.16-0.21,0.35-0.28,0.55c-0.07,0.21-0.1,0.42-0.1,0.65
						c0,0.21,0.03,0.4,0.09,0.57c0.06,0.17,0.15,0.32,0.27,0.43c0.12,0.12,0.26,0.2,0.42,0.24c0.17,0.05,0.35,0.05,0.56,0
						c0.29-0.06,0.54-0.19,0.75-0.38c0.21-0.19,0.36-0.44,0.44-0.75l0.94-0.2c-0.05,0.33-0.14,0.62-0.28,0.88
						c-0.14,0.26-0.31,0.49-0.5,0.67c-0.19,0.19-0.41,0.34-0.64,0.46c-0.23,0.12-0.47,0.21-0.71,0.26c-0.3,0.06-0.59,0.07-0.87,0.03
						c-0.28-0.05-0.53-0.15-0.75-0.32c-0.22-0.16-0.39-0.38-0.52-0.67C153.95,80.24,153.88,79.9,153.88,79.5z"/>
					<path class="st1" d="M160.64,79.65l-0.36,0.88l-1.02,0.22v-0.14l2.12-5.2l0.45-0.1l2.08,4.3v0.14l-1.01,0.22l-0.36-0.72
						L160.64,79.65z M160.96,78.71l1.27-0.27l-0.63-1.46L160.96,78.71z"/>
					<path class="st1" d="M166.23,76.48l-0.01,2.77l-0.97,0.21l0.02-4.87l0.31-0.07l2.56,2.21l0.01-2.75l0.98-0.21l-0.01,4.86
						l-0.29,0.06L166.23,76.48z"/>
					<path class="st1" d="M172.7,73.02c0.37-0.08,0.69-0.08,0.97-0.01c0.28,0.07,0.51,0.2,0.7,0.38c0.19,0.18,0.33,0.41,0.43,0.68
						c0.1,0.27,0.14,0.56,0.14,0.87c0,0.31-0.04,0.62-0.14,0.93c-0.09,0.31-0.24,0.6-0.43,0.87c-0.19,0.27-0.43,0.5-0.71,0.7
						c-0.28,0.2-0.61,0.34-0.98,0.42l-1.7,0.37l0.02-4.84L172.7,73.02z M172.68,76.92c0.21-0.05,0.4-0.13,0.56-0.24
						c0.16-0.12,0.3-0.26,0.4-0.42c0.11-0.16,0.19-0.34,0.24-0.53c0.05-0.19,0.08-0.38,0.08-0.58c0-0.19-0.03-0.37-0.08-0.54
						c-0.06-0.17-0.14-0.3-0.24-0.42c-0.11-0.11-0.24-0.19-0.4-0.24c-0.16-0.05-0.34-0.05-0.55,0l-0.71,0.15l-0.01,2.97
						L172.68,76.92z"/>
					<path class="st1" d="M177.88,73.85l0.45-1.06l0.55-1.12l1.04-0.22v0.15l-1.58,3.09l-0.01,1.94l-0.98,0.21l0.01-1.94l-1.57-2.41
						v-0.15l1.05-0.23l0.57,0.91l0.43,0.83L177.88,73.85z"/>
				</g>
				<g>
					<path class="st0" d="M153.88,79.5c0-0.4,0.07-0.77,0.2-1.11c0.13-0.34,0.31-0.64,0.53-0.9c0.22-0.26,0.47-0.47,0.75-0.64
						c0.28-0.17,0.57-0.28,0.87-0.34c0.23-0.05,0.46-0.07,0.69-0.05c0.23,0.02,0.44,0.08,0.63,0.17c0.19,0.1,0.36,0.24,0.5,0.43
						c0.14,0.19,0.24,0.42,0.29,0.71l-0.95,0.2c-0.1-0.26-0.25-0.42-0.45-0.5c-0.2-0.08-0.44-0.09-0.71-0.03
						c-0.2,0.04-0.39,0.12-0.56,0.23c-0.17,0.11-0.31,0.25-0.43,0.41c-0.12,0.16-0.21,0.35-0.28,0.55c-0.07,0.21-0.1,0.42-0.1,0.65
						c0,0.21,0.03,0.4,0.09,0.57c0.06,0.17,0.15,0.32,0.27,0.43c0.12,0.12,0.26,0.2,0.42,0.24c0.17,0.05,0.35,0.05,0.56,0
						c0.29-0.06,0.54-0.19,0.75-0.38c0.21-0.19,0.36-0.44,0.44-0.75l0.94-0.2c-0.05,0.33-0.14,0.62-0.28,0.88
						c-0.14,0.26-0.31,0.49-0.5,0.67c-0.19,0.19-0.41,0.34-0.64,0.46c-0.23,0.12-0.47,0.21-0.71,0.26c-0.3,0.06-0.59,0.07-0.87,0.03
						c-0.28-0.05-0.53-0.15-0.75-0.32c-0.22-0.16-0.39-0.38-0.52-0.67C153.95,80.24,153.88,79.9,153.88,79.5z"/>
					<path class="st0" d="M160.64,79.65l-0.36,0.88l-1.02,0.22v-0.14l2.12-5.2l0.45-0.1l2.08,4.3v0.14l-1.01,0.22l-0.36-0.72
						L160.64,79.65z M160.96,78.71l1.27-0.27l-0.63-1.46L160.96,78.71z"/>
					<path class="st0" d="M166.23,76.48l-0.01,2.77l-0.97,0.21l0.02-4.87l0.31-0.07l2.56,2.21l0.01-2.75l0.98-0.21l-0.01,4.86
						l-0.29,0.06L166.23,76.48z"/>
					<path class="st0" d="M172.7,73.02c0.37-0.08,0.69-0.08,0.97-0.01c0.28,0.07,0.51,0.2,0.7,0.38c0.19,0.18,0.33,0.41,0.43,0.68
						c0.1,0.27,0.14,0.56,0.14,0.87c0,0.31-0.04,0.62-0.14,0.93c-0.09,0.31-0.24,0.6-0.43,0.87c-0.19,0.27-0.43,0.5-0.71,0.7
						c-0.28,0.2-0.61,0.34-0.98,0.42l-1.7,0.37l0.02-4.84L172.7,73.02z M172.68,76.92c0.21-0.05,0.4-0.13,0.56-0.24
						c0.16-0.12,0.3-0.26,0.4-0.42c0.11-0.16,0.19-0.34,0.24-0.53c0.05-0.19,0.08-0.38,0.08-0.58c0-0.19-0.03-0.37-0.08-0.54
						c-0.06-0.17-0.14-0.3-0.24-0.42c-0.11-0.11-0.24-0.19-0.4-0.24c-0.16-0.05-0.34-0.05-0.55,0l-0.71,0.15l-0.01,2.97
						L172.68,76.92z"/>
					<path class="st0" d="M177.88,73.85l0.45-1.06l0.55-1.12l1.04-0.22v0.15l-1.58,3.09l-0.01,1.94l-0.98,0.21l0.01-1.94l-1.57-2.41
						v-0.15l1.05-0.23l0.57,0.91l0.43,0.83L177.88,73.85z"/>
				</g>
			</g>
		</g>
	</g>
	<g>
		<path class="st0" d="M240.78,39.57l0-0.01c0.03-1.37,1.15-2.51,2.53-2.48c1.4,0.03,2.46,1.19,2.44,2.56l0,0.01
			c-0.03,1.37-1.15,2.51-2.53,2.48C241.82,42.1,240.75,40.94,240.78,39.57z M245.46,39.64l0-0.01c0.02-1.23-0.9-2.26-2.16-2.28
			c-1.24-0.02-2.22,0.98-2.24,2.21l0,0.01c-0.02,1.23,0.9,2.26,2.16,2.28C244.47,41.88,245.44,40.87,245.46,39.64z M242.21,38.21
			l1.26,0.02c0.64,0.01,1.1,0.3,1.08,0.92c-0.01,0.42-0.23,0.71-0.56,0.83l0.61,0.94l-0.86-0.02l-0.51-0.81l-0.32-0.01l-0.01,0.8
			l-0.74-0.01L242.21,38.21z M243.36,39.43c0.25-0.04,0.37-0.2,0.34-0.38c-0.03-0.2-0.19-0.29-0.45-0.25l-0.47,0.08l0.11,0.63
			L243.36,39.43z"/>
	</g>
</g>
</svg>
