<svg width="87" height="25" viewBox="0 0 87 25" fill="none" xmlns="http://www.w3.org/2000/svg">
<path fill-rule="evenodd" clip-rule="evenodd" d="M0.769846 0H8.22335C13.1574 0 15.7818 2.92717 15.7818 7.2158C15.7818 7.76039 15.6419 8.57728 15.5369 9.08783C15.5019 9.29205 15.4669 9.4282 15.4669 9.56434C15.4669 9.83664 15.5719 10.0068 15.9568 10.211C18.3013 11.5044 19.3511 13.6147 19.3511 16.61C19.3511 20.7965 16.6917 23.8258 11.2327 23.8258H0.769846C0.209958 23.8258 0 23.5875 0 23.0429V0.782847C0 0.238258 0.209958 0 0.769846 0ZM6.43939 9.36011H8.22403C9.13385 9.36011 9.83371 8.81547 9.83371 7.76024C9.83371 6.73905 9.13385 6.16037 8.22403 6.16037H6.43939C5.87951 6.16037 5.66955 6.39865 5.66955 6.94329V8.57719C5.66955 9.12183 5.87951 9.36011 6.43939 9.36011ZM6.43939 17.6646H11.1285C12.4932 17.6646 13.263 17.1881 13.263 16.0649C13.263 14.9758 12.4932 14.4653 11.1285 14.4653H6.43939C5.87951 14.4653 5.66955 14.7035 5.66955 15.2481V16.8818C5.66955 17.4263 5.87951 17.6646 6.43939 17.6646ZM21.5217 23.0431V7.59034C21.5217 7.04575 21.7316 6.80749 22.2915 6.80749H26.5957C27.1555 6.80749 27.3655 7.04575 27.3655 7.59034V23.0431C27.3655 23.5877 27.1555 23.8259 26.5957 23.8259H22.2915C21.7316 23.8259 21.5217 23.5877 21.5217 23.0431ZM21.5217 4.18587V0.782724C21.5217 0.23822 21.7316 0 22.2915 0H26.5957C27.1555 0 27.3655 0.23822 27.3655 0.782724V4.18587C27.3655 4.73037 27.1555 4.9686 26.5957 4.9686H22.2915C21.7316 4.9686 21.5217 4.73037 21.5217 4.18587ZM32.0874 12.4234H30.0928C29.5329 12.4234 29.288 12.2192 29.288 11.6746V7.55617C29.288 7.01158 29.4979 6.80736 30.0928 6.80736H32.0874C32.6473 6.80736 32.8573 6.5691 32.8573 6.02452V0.782847C32.8573 0.238258 33.0672 0 33.6271 0H37.9313C38.4912 0 38.7011 0.238258 38.7011 0.782847V6.02452C38.7011 6.5691 38.9111 6.80736 39.471 6.80736H43.4602C44.0201 6.80736 44.265 7.01158 44.265 7.55617V11.6746C44.265 12.2192 44.0201 12.4234 43.4602 12.4234H39.471C38.9111 12.4234 38.7011 12.6617 38.7011 13.2063V23.0429C38.7011 23.5875 38.4912 23.8258 37.9313 23.8258H33.6271C33.0672 23.8258 32.8573 23.5875 32.8573 23.0429V13.2063C32.8573 12.6617 32.6473 12.4234 32.0874 12.4234ZM53.1193 24.1661C50.3898 24.1661 47.5904 23.3492 45.5958 22.1579C45.2458 21.9537 45.1758 21.5793 45.3858 21.1708L46.9605 18.2776C47.2404 17.767 47.6604 17.8011 48.1503 18.0734C49.62 18.9243 51.5796 19.537 53.0843 19.537C54.0291 19.537 54.7289 19.2647 54.7289 18.652C54.7289 18.0734 54.0991 17.8692 53.1543 17.8692H52.3844C48.2552 17.8692 45.4208 15.8609 45.4208 12.3891C45.4208 8.50884 48.9901 6.46659 52.9093 6.46659C55.4988 6.46659 57.4234 6.90908 59.488 7.99828C59.8729 8.2025 60.0129 8.57691 59.7679 8.98536L57.9833 12.0147C57.7383 12.4572 57.2134 12.4912 56.7585 12.2189C55.3588 11.368 54.0991 11.1297 52.9443 11.1297C51.8945 11.1297 51.3696 11.4701 51.3696 11.9466C51.3696 12.5253 51.8945 12.7635 53.3992 12.7635H54.274C58.2282 12.7635 60.7827 14.6356 60.7827 17.9032C60.7827 21.9537 57.5984 24.1661 53.1193 24.1661ZM73.8099 14.6018L79.4787 22.8387C79.8286 23.3493 79.6187 23.8258 78.9888 23.8258H73.9148C73.32 23.8258 72.865 23.7577 72.3751 23.0429L69.6457 19.1968C69.3307 18.7543 69.0158 18.7543 68.6309 19.1287L68.3509 19.401C67.896 19.8435 67.861 20.0817 67.861 20.6944V23.077C67.861 23.5875 67.6511 23.8258 67.0912 23.8258H62.7521C62.2272 23.8258 62.0172 23.5875 62.0172 23.077V0.74881C62.0172 0.238258 62.2272 0 62.7521 0H67.0912C67.6511 0 67.861 0.238258 67.861 0.74881V10.6535C67.861 11.1981 68.3859 11.3343 68.7709 10.8918L71.7453 7.62425C72.2352 7.07966 72.7251 6.80736 73.3549 6.80736H78.8139C79.4787 6.80736 79.6537 7.38599 79.1988 7.82847L73.9148 13.3084C73.4949 13.7509 73.3899 14.0232 73.8099 14.6018ZM81.1562 23.0431V7.59034C81.1562 7.04575 81.3661 6.80749 81.926 6.80749H86.2302C86.79 6.80749 87 7.04575 87 7.59034V23.0431C87 23.5877 86.79 23.8259 86.2302 23.8259H81.926C81.3661 23.8259 81.1562 23.5877 81.1562 23.0431ZM81.1562 4.18587V0.782724C81.1562 0.23822 81.3661 0 81.926 0H86.2302C86.79 0 87 0.23822 87 0.782724V4.18587C87 4.73037 86.79 4.9686 86.2302 4.9686H81.926C81.3661 4.9686 81.1562 4.73037 81.1562 4.18587Z" fill="white"/>
</svg>
