<svg xmlns="http://www.w3.org/2000/svg" width="26" height="27" viewBox="0 0 26 27" fill="none">
<path d="M10.5364 11.3267C9.7384 11.3267 9.1084 12.0017 9.1084 12.8252C9.1084 13.6487 9.7524 14.3237 10.5364 14.3237C11.3344 14.3237 11.9644 13.6487 11.9644 12.8252C11.9784 12.0017 11.3344 11.3267 10.5364 11.3267ZM15.6464 11.3267C14.8484 11.3267 14.2184 12.0017 14.2184 12.8252C14.2184 13.6487 14.8624 14.3237 15.6464 14.3237C16.4444 14.3237 17.0744 13.6487 17.0744 12.8252C17.0744 12.0017 16.4444 11.3267 15.6464 11.3267Z" fill="white" style="fill: inherit;"/>
<path d="M22.4503 0H3.69031C2.10831 0 0.820312 1.242 0.820312 2.781V21.033C0.820312 22.572 2.10831 23.814 3.69031 23.814H19.5663L18.8243 21.3165L20.6163 22.923L22.3103 24.435L25.3203 27V2.781C25.3203 1.242 24.0323 0 22.4503 0ZM17.0463 17.631C17.0463 17.631 16.5423 17.0505 16.1223 16.5375C17.9563 16.038 18.6563 14.931 18.6563 14.931C18.0823 15.2955 17.5363 15.552 17.0463 15.7275C16.3463 16.011 15.6743 16.2 15.0163 16.308C13.6723 16.551 12.4403 16.4835 11.3903 16.2945C10.5923 16.146 9.90631 15.93 9.33231 15.714C9.01031 15.5925 8.66031 15.444 8.31031 15.255C8.26831 15.228 8.22631 15.2145 8.18431 15.1875C8.15631 15.174 8.14231 15.1605 8.12831 15.147C7.87631 15.012 7.73631 14.9175 7.73631 14.9175C7.73631 14.9175 8.40831 15.9975 10.1863 16.5105C9.76631 17.0235 9.24831 17.631 9.24831 17.631C6.15431 17.5365 4.97831 15.579 4.97831 15.579C4.97831 11.232 6.99431 7.7085 6.99431 7.7085C9.01031 6.2505 10.9283 6.291 10.9283 6.291L11.0683 6.453C8.54831 7.155 7.38631 8.2215 7.38631 8.2215C7.38631 8.2215 7.69431 8.0595 8.21231 7.83C9.71031 7.1955 10.9003 7.02 11.3903 6.9795C11.4743 6.966 11.5443 6.9525 11.6283 6.9525C12.4823 6.8445 13.4483 6.8175 14.4563 6.9255C15.7863 7.074 17.2143 7.452 18.6703 8.2215C18.6703 8.2215 17.5643 7.209 15.1843 6.507L15.3803 6.291C15.3803 6.291 17.2983 6.2505 19.3143 7.7085C19.3143 7.7085 21.3303 11.232 21.3303 15.579C21.3303 15.579 20.1403 17.5365 17.0463 17.631Z" fill="white" style="&#10;    fill: inherit;&#10;"/>
</svg>