<svg xmlns="http://www.w3.org/2000/svg" width="747" height="487" viewBox="0 0 747 487" fill="none" style="&#10;    height: auto;&#10;">
<path d="M808.448 485.753H0H808.448ZM137.606 -272.997L0.849967 485.412L137.606 -272.997ZM815.452 438.749H8.47594H815.452ZM188.042 -272.997L51.2863 485.412L188.042 -272.997ZM823.998 391.349H17.0236H823.998ZM238.478 -272.997L101.722 485.412L238.478 -272.997ZM832.544 343.949H25.5707H832.544ZM288.914 -272.997L152.158 485.412L288.914 -272.997ZM841.096 296.543H34.1178H841.096ZM339.35 -272.997L202.594 485.412L339.35 -272.997ZM849.642 249.143H42.6649H849.642ZM389.786 -272.997L253.03 485.412L389.786 -272.997ZM858.188 201.744H51.2126H858.188ZM440.222 -272.997L303.466 485.412L440.222 -272.997ZM866.734 154.344H59.7597H866.734ZM490.658 -272.997L353.902 485.412L490.658 -272.997ZM875.285 106.943H68.3068H875.285ZM541.096 -272.997L404.338 485.412L541.096 -272.997ZM883.831 59.5432H76.8539H883.831ZM591.531 -272.997L454.774 485.412L591.531 -272.997ZM892.377 12.1425H85.4015H892.377ZM641.967 -272.997L505.21 485.412L641.967 -272.997ZM900.923 -35.2578H93.9487H900.923ZM692.403 -272.997L555.645 485.412L692.403 -272.997ZM909.47 -82.6585H102.496H909.47ZM742.839 -272.997L606.081 485.412L742.839 -272.997ZM918.021 -130.059H111.043H918.021ZM793.275 -272.997L656.517 485.412L793.275 -272.997ZM926.567 -177.46H119.591H926.567ZM843.711 -272.997L706.953 485.412L843.711 -272.997ZM935.113 -224.86H128.138H935.113ZM894.146 -272.997L757.388 485.412L894.146 -272.997ZM943.659 -272.261H136.685H943.659ZM945 -273L808.139 486L945 -273Z" fill="white" style="&#10;    stroke: inherit;&#10;"/>
<path d="M945 -273L808.139 486M808.448 485.752H0H808.448ZM137.606 -272.997L0.849967 485.412L137.606 -272.997ZM815.452 438.749H8.47594H815.452ZM188.042 -272.997L51.2863 485.412L188.042 -272.997ZM823.998 391.349H17.0236H823.998ZM238.478 -272.997L101.722 485.412L238.478 -272.997ZM832.544 343.949H25.5707H832.544ZM288.914 -272.997L152.158 485.412L288.914 -272.997ZM841.096 296.543H34.1178H841.096ZM339.35 -272.997L202.594 485.412L339.35 -272.997ZM849.642 249.143H42.6649H849.642ZM389.786 -272.997L253.03 485.412L389.786 -272.997ZM858.188 201.744H51.2126H858.188ZM440.222 -272.997L303.466 485.412L440.222 -272.997ZM866.734 154.344H59.7597H866.734ZM490.658 -272.997L353.902 485.412L490.658 -272.997ZM875.285 106.943H68.3068H875.285ZM541.096 -272.997L404.338 485.412L541.096 -272.997ZM883.831 59.5432H76.8539H883.831ZM591.531 -272.997L454.774 485.412L591.531 -272.997ZM892.377 12.1425H85.4015H892.377ZM641.967 -272.997L505.21 485.412L641.967 -272.997ZM900.923 -35.2578H93.9487H900.923ZM692.403 -272.997L555.645 485.412L692.403 -272.997ZM909.47 -82.6585H102.496H909.47ZM742.839 -272.997L606.081 485.412L742.839 -272.997ZM918.021 -130.059H111.043H918.021ZM793.275 -272.997L656.517 485.412L793.275 -272.997ZM926.567 -177.46H119.591H926.567ZM843.711 -272.997L706.953 485.412L843.711 -272.997ZM935.113 -224.86H128.138H935.113ZM894.146 -272.997L757.388 485.412L894.146 -272.997ZM943.659 -272.261H136.685H943.659Z" stroke="#454545" style="&#10;    stroke: inherit;&#10;"/>
</svg>