<svg width="1032" height="573" viewBox="0 0 1032 573" fill="none" xmlns="http://www.w3.org/2000/svg">
<path d="M1026.84 117.549C1024.46 113.723 1021.42 111.151 1018.12 109.897L1018.34 107.919C1019.75 95.6504 1017.54 83.4481 1012.25 74.3458L1012.21 74.4777C1007.1 65.7053 999.648 61.0222 991.846 60.8903C981.179 60.9563 971.042 64.7819 962.799 68.0798C959.89 69.2011 957.114 70.3224 954.733 70.9819C950.282 72.2352 946.271 75.2692 943.053 79.5565C938.734 76.7863 933.929 75.9948 929.213 77.314L928.949 77.3799C929.83 74.148 930.447 70.7181 930.712 67.0904L932.342 51.92C932.342 51.854 932.342 51.788 932.342 51.6561C933.577 40.3113 931.196 28.1749 925.819 19.9961C924.893 18.545 923.836 17.2258 922.778 16.0386C904.045 -5.79364 875.483 -2.09997 853.93 15.445C839.429 4.89162 822.018 4.56183 804.872 15.0492C791.958 22.8983 780.057 36.2219 770.404 52.7774C754.889 73.0926 743.077 101.389 738.317 131.202C728.355 131.07 716.807 131.466 705.259 134.632C705.039 134.698 704.818 134.764 704.598 134.83C708.521 128.432 711.165 120.187 711.826 111.348L716.322 68.5415C717.733 55.6796 715 42.7518 709.005 33.8474C703.099 25.0749 694.592 21.1834 686.394 23.4919C676.036 26.3281 664.488 29.3622 652.323 32.5942C615.166 42.422 573.117 53.5689 539.839 65.1776C538.472 65.6393 537.15 66.2989 535.872 67.1564C530.054 70.85 525.47 76.9182 522.473 84.5034C515.244 91.0333 510.44 101.653 509.161 114.514C509.073 115.24 509.117 115.108 509.073 115.834C508.809 118.604 507.266 130.41 506.341 137.402C503.387 159.894 502.506 166.292 504.137 174.141C504.93 179.022 506.429 183.573 508.368 187.596C503.696 188.916 499.288 190.63 495.321 192.148C492.412 193.269 489.635 194.456 487.255 195.116C482.804 196.303 478.793 199.337 475.531 203.69C471.211 200.986 466.407 200.129 461.691 201.448L461.426 201.514C462.308 198.282 462.925 194.918 463.189 191.29L464.82 176.054C464.82 175.922 464.82 175.856 464.864 175.724C466.098 164.379 463.674 152.309 458.297 144.064C457.371 142.613 456.357 141.294 455.256 140.172C436.523 118.34 407.961 122.034 386.408 139.579C371.862 129.025 354.496 128.696 337.35 139.183C324.436 147.032 312.535 160.356 302.882 176.911C287.367 197.226 275.555 225.522 270.794 255.336C260.833 255.204 249.285 255.6 237.737 258.766C208.161 266.878 184.448 286.27 168.051 314.632C155.269 331.452 145.704 352.558 139.842 377.161L155.489 226.116C156.283 218.135 157.826 202.437 151.17 188.52C138.917 159.696 112.471 165.171 102.818 167.413C95.1925 168.732 52.0854 178.098 25.6834 224.401C20.6587 230.931 15.8984 238.318 11.7111 246.959C1.88197 267.406 -1.86456 290.36 0.868201 313.445C4.83511 346.622 21.3198 370.565 30.047 381.052L19.2923 486.85C18.4548 494.765 16.9121 509.144 22.6421 522.929C28.328 537.44 38.5979 545.751 50.146 545.751C52.3499 545.751 54.5978 545.421 56.8457 544.827L63.2368 543.046C94.7958 534.406 110.619 530.052 123.049 526.689L146.718 520.225C151.434 518.971 155.666 515.674 159.236 511.122C164.349 514.42 169.991 516.201 175.941 516.201C178.938 516.201 182.024 515.805 185.153 514.948C196.305 511.914 205.076 504.527 212.04 495.886C218.211 500.503 226.718 503.537 237.825 500.503C240.91 499.646 243.952 498.392 246.993 496.875C247.654 504.527 249.682 513.167 254.75 520.884C257.968 525.765 264.579 533.087 275.114 533.087C276.833 533.087 278.64 532.889 280.535 532.493C289.88 530.382 309.89 519.433 322.981 502.284C323.378 508.22 324.259 513.563 325.361 518.18C331.268 542.98 346.606 561.317 367.411 568.44C376.887 571.672 385.879 572.925 393.989 572.925C415.102 572.925 430.573 564.681 434.584 562.24C461.823 547.531 483.332 526.821 498.407 501.624C516.919 477.088 528.423 447.209 531.861 413.636L533.668 396.421C540.28 412.317 551.651 420.298 567.872 420.298C577.657 420.298 589.249 417.395 602.516 411.525C604.235 410.734 605.866 409.81 607.364 408.821C607.849 416.208 609.877 422.54 613.403 426.762C616.356 430.323 620.147 432.236 624.114 432.236C625.48 432.236 626.846 432.038 628.257 431.577C631.43 430.521 634.295 428.477 636.764 425.706C637.91 426.432 639.056 426.96 640.334 426.96C640.951 426.96 641.568 426.894 642.229 426.63L646.725 425.179C648.885 424.453 650.736 422.606 652.014 420.034C653.865 421.551 656.069 422.145 658.273 421.419L662.725 419.968C663.827 419.638 664.841 418.847 665.722 417.857C666.207 417.989 666.692 418.253 667.177 418.253C667.794 418.253 668.411 418.187 669.072 417.923L673.347 416.538C675.507 415.813 677.314 414.032 678.593 411.591C680.444 413.174 682.692 413.636 684.807 412.976L686.086 412.581C687.672 412.053 688.995 410.8 690.141 409.217C691.066 409.678 691.992 409.942 692.962 409.942C693.579 409.942 694.24 409.876 694.857 409.612L702.35 407.172C707.683 405.457 711.694 401.104 714.559 395.629L714.603 395.563C715 396.355 715.485 397.08 716.014 397.674C717.6 399.587 719.584 400.642 721.611 400.642C722.229 400.642 722.89 400.576 723.507 400.312L724.917 399.851C728.62 404.204 734.438 408.821 742.812 408.821C744.531 408.821 746.339 408.623 748.234 408.227C757.622 406.117 777.589 395.168 790.68 378.084C791.076 384.021 791.958 389.363 793.06 393.98C798.966 418.781 814.305 437.117 835.109 444.241C844.586 447.473 853.577 448.726 861.687 448.726C882.8 448.726 898.227 440.481 902.282 438.041C929.522 423.332 951.075 402.621 966.149 377.359C984.617 352.822 996.122 323.009 999.559 289.436L999.604 289.106V289.238L1012.25 167.809C1016.57 167.347 1020.67 164.775 1023.8 160.092C1024.15 159.564 1024.46 158.904 1024.82 158.311C1025.39 157.651 1025.96 157.058 1026.49 156.266C1029.93 151.121 1031.91 144.328 1032 136.94C1031.91 129.751 1030.15 122.825 1026.84 117.549Z" fill="black"/>
<path d="M105.815 203.228C116.482 200.788 127.941 200.062 131.071 208.901C132.393 210.946 132.085 214.969 131.512 220.905L109.517 432.896C131.688 424.387 135.655 422.87 157.561 416.868C158.883 416.472 159.677 418.253 159.368 420.759L154.696 465.281C154.388 467.788 153.33 470.03 152.007 470.426C129.837 476.494 120.801 478.869 68.4819 493.247C66.3662 493.841 64.2065 494.435 62.0908 495.028C57.5509 496.282 54.3773 494.237 52.8347 489.818C51.7768 487.641 52.0854 483.684 52.6584 478.209L75.8868 249.465C76.4598 243.991 74.0797 245.574 72.4488 246.497C72.4488 246.497 42.4766 272.089 62.7519 310.543C61.7822 310.609 58.168 342.533 58.168 342.533C58.168 342.533 17.6173 301.836 40.8017 253.687C61.7822 210.022 105.815 203.228 105.815 203.228Z" fill="white"/>
<path d="M289.835 397.278C289.835 397.674 289.615 398.07 289.439 398.465C274.585 428.806 258.012 446.417 242.982 450.572C227.158 454.926 224.161 435.732 223.897 419.374C217.153 433.951 208.91 459.939 190.31 465.017C171.489 470.162 162.938 446.681 167.787 399.455C173.076 348.469 196.437 306.717 241.88 294.251C251.092 291.745 260.877 291.217 272.072 291.415C273.659 291.349 274.849 293.196 274.629 296.56L265.593 383.954C263.83 399.389 266.607 403.346 270.398 402.291C275.422 400.906 284.326 389.033 289.968 379.799C290.188 379.403 290.585 379.271 290.761 379.205C291.158 379.074 291.554 379.733 291.554 380.789L289.835 397.278ZM232.844 321.492C218.211 325.515 207.897 342.533 204.15 378.546C200.624 414.493 209.792 413.438 212.833 412.58C215.875 411.723 219.886 408.095 224.954 399.059L232.844 321.492Z" fill="white"/>
<path d="M385.923 184.76C399.939 161.609 428.148 153.496 440.798 169.326C441.019 169.26 440.798 170.051 440.798 170.447L439.035 186.937C439.035 188.058 438.815 188.85 438.198 188.982C437.977 189.047 437.581 188.784 437.404 188.85C430.22 186.475 412.237 186.673 407.212 235.746L405.449 253.687L423.873 248.674L420.964 274.53L402.804 278.817L391.609 386.791C391.168 391.276 390.551 394.376 389.317 396.553C383.19 409.546 363.311 421.881 355.289 423.727C348.061 425.31 348.942 417.791 349.603 411.459L362.342 289.898L337.923 296.626L322.54 445.494C322.1 449.979 321.483 453.079 320.248 455.256C314.122 468.249 294.243 480.584 286.441 482.364C279.213 483.947 280.094 476.428 280.756 470.096L297.461 307.773L300.105 282.642L302.75 256.061C309.053 196.171 354.011 146.834 380.413 176.383L368.689 198.018C359.256 195.907 347.4 205.075 343.433 243.067L340.568 271.561L364.986 264.834L366.529 248.74C368.072 233.372 371.245 216.882 376.975 202.173C380.898 193.401 385.923 184.76 385.923 184.76Z" fill="white"/>
<path d="M692.433 62.869L687.805 106.995C687.76 109.436 686.438 111.678 685.116 112.074C674.802 114.91 658.67 119.329 638.527 124.87L616.136 340.95C615.254 349.392 614.902 358.165 604.852 362.848C593.172 367.993 568.577 376.171 563.42 362.65C562.627 360.473 562.935 356.516 563.508 351.041L585.326 139.974C570.781 143.998 555.442 148.153 539.266 152.638C537.415 153.628 536.886 151.847 536.93 150.396C536.665 149.472 542.175 110.887 542.483 105.544C542.792 102.576 543.85 101.323 545.172 100.465C588.72 85.2948 649.105 70.5201 690.625 59.1093C691.948 58.6476 692.741 60.3626 692.433 62.869Z" fill="white"/>
<path d="M413.294 478.473C440.358 473.394 452.479 454.134 452.479 454.134C462.704 435.732 464.688 426.102 466.275 417.264L470.109 395.233L472.093 374.984L474.517 353.218C467.994 368.124 459.795 390.023 442.561 394.772C423.917 399.916 415.19 376.435 420.038 329.209L431.013 246.827L465.966 236.999L456.93 318.524C454.991 335.541 460.148 340.488 463.013 341.873C468.787 344.709 476.324 327.56 476.324 327.56C486.286 273.738 491.398 230.667 491.398 230.667C500.434 228.227 513.349 220.905 524.324 221.169C526.131 221.037 527.321 222.884 526.88 226.314L507.971 408.227C501.58 470.822 459.619 501.36 435.553 514.222C435.553 514.222 411.928 529.129 382.353 518.971C362.871 512.31 343.609 488.235 367.455 442.262C395.708 387.714 456.93 410.997 456.93 410.997C456.93 410.997 458.914 433.489 441.327 438.37C441.327 438.37 405.008 423.464 393.857 462.313C393.812 462.247 388.788 483.09 413.294 478.473Z" fill="white"/>
<path d="M757.49 273.21C757.49 273.606 757.27 274.002 757.093 274.398C742.239 304.738 725.666 322.349 710.636 326.505C694.813 330.858 691.816 311.664 691.551 295.306C684.807 309.883 676.565 335.871 657.965 340.95C639.144 346.094 630.593 322.613 635.441 275.387C640.731 224.401 664.091 182.649 709.534 170.183C718.746 167.677 728.531 167.149 739.727 167.347C741.314 167.281 742.504 169.128 742.283 172.492L733.248 259.887C731.485 275.321 734.261 279.278 738.052 278.223C743.077 276.838 751.98 264.966 757.622 255.731C757.842 255.336 758.239 255.204 758.416 255.138C758.812 255.006 759.209 255.665 759.209 256.721L757.49 273.21ZM700.499 197.358C685.865 201.382 675.551 218.399 671.805 254.412C668.278 290.36 677.446 289.304 680.488 288.447C683.485 287.655 687.54 283.962 692.609 274.925L700.499 197.358Z" fill="white"/>
<path d="M853.577 60.6264C867.594 37.475 895.803 29.3621 908.453 45.1921C908.673 45.1262 908.453 45.9177 908.453 46.3134L906.69 62.803C906.69 63.9243 906.469 64.6498 905.852 64.8477C905.632 64.9137 905.235 64.6499 905.059 64.7158C897.874 62.3413 879.891 62.5392 874.866 111.612L873.103 129.553L891.527 124.54L888.618 150.396L870.459 154.683L859.263 262.657C858.822 267.142 858.205 270.242 856.971 272.419C850.844 285.413 830.966 297.747 822.944 299.594C815.759 301.177 816.597 293.657 817.258 287.325L829.996 165.764L805.578 172.492L790.195 321.36C789.754 325.845 789.137 328.945 787.903 331.122C781.776 344.116 761.897 356.45 754.096 358.231C746.911 359.814 747.749 352.294 748.41 345.962L765.115 183.639L767.76 158.509L770.404 131.927C776.707 72.0372 821.666 22.7003 848.068 52.2497L836.343 73.884C826.911 71.7734 815.054 80.9416 811.131 118.934L808.266 147.428L832.685 140.7L834.228 124.606C835.77 109.238 838.944 92.7481 844.674 78.0394C848.552 69.2669 853.577 60.6264 853.577 60.6264Z" fill="white"/>
<path d="M880.949 354.339C908.012 349.26 920.133 330 920.133 330C930.359 311.598 932.342 301.968 933.929 293.13L937.764 271.1L939.747 250.85L942.171 229.084C935.648 243.991 927.45 265.889 910.216 270.638C891.571 275.783 882.844 252.301 887.693 205.075L898.668 122.693L933.621 112.865L924.585 194.39C922.645 211.407 927.802 216.354 930.667 217.739C936.441 220.575 943.979 203.426 943.979 203.426C953.94 149.604 959.053 106.533 959.053 106.533C968.044 104.093 981.003 96.7715 991.978 97.0354C993.785 96.9035 994.975 98.7503 994.535 102.18L975.626 284.093C969.235 346.688 927.273 377.227 903.208 390.089C903.208 390.089 879.582 404.995 850.007 394.838C830.525 388.176 811.263 364.101 835.109 318.128C863.362 263.58 924.585 286.864 924.585 286.864C924.585 286.864 926.568 309.355 908.982 314.236C908.982 314.236 872.662 299.33 861.511 338.179C861.467 338.113 856.398 358.956 880.949 354.339Z" fill="white"/>
<path d="M619.574 399.784C619.574 397.146 619.882 394.706 620.455 392.463C621.028 390.221 621.822 388.242 622.791 386.527C623.761 384.812 624.863 383.427 626.097 382.305C627.331 381.184 628.609 380.459 629.932 380.063C630.945 379.733 631.959 379.601 632.973 379.733C633.987 379.865 634.912 380.261 635.75 380.854C636.587 381.514 637.337 382.437 637.954 383.691C638.571 384.944 639.011 386.461 639.232 388.374L635.045 389.693C634.604 387.978 633.943 386.923 633.061 386.395C632.18 385.867 631.122 385.801 629.932 386.197C629.05 386.461 628.213 386.989 627.463 387.714C626.714 388.44 626.097 389.363 625.568 390.418C625.039 391.474 624.643 392.727 624.334 394.046C624.025 395.431 623.893 396.816 623.893 398.333C623.893 399.719 624.025 400.972 624.29 402.093C624.554 403.214 624.951 404.204 625.48 404.929C626.009 405.721 626.626 406.248 627.331 406.512C628.08 406.842 628.874 406.842 629.799 406.512C631.078 406.116 632.18 405.259 633.105 404.006C634.031 402.753 634.692 401.104 635.045 399.059L639.188 397.74C638.967 399.916 638.571 401.829 637.954 403.544C637.337 405.259 636.587 406.776 635.75 407.963C634.912 409.217 633.943 410.206 632.929 410.997C631.915 411.789 630.857 412.383 629.799 412.712C628.477 413.108 627.199 413.174 625.965 412.91C624.731 412.58 623.629 411.921 622.659 410.8C621.689 409.744 620.94 408.293 620.367 406.38C619.882 404.665 619.574 402.423 619.574 399.784Z" stroke="white" stroke-width="0.2891" stroke-miterlimit="10"/>
<path d="M649.37 400.774L647.783 406.578L643.287 408.029V407.106L652.631 372.808L654.615 372.148L663.783 400.51V401.433L659.331 402.885L657.744 398.136L649.37 400.774ZM650.78 394.574L656.378 392.793L653.601 383.163L650.78 394.574Z" stroke="white" stroke-width="0.2891" stroke-miterlimit="10"/>
<path d="M674.008 379.865L673.964 398.135L669.689 399.521L669.777 367.399L671.144 366.937L682.427 381.514L682.471 363.375L686.791 361.99L686.747 394.046L685.468 394.442L674.008 379.865Z" stroke="white" stroke-width="0.2891" stroke-miterlimit="10"/>
<path d="M702.526 357.043C704.157 356.516 705.567 356.516 706.802 356.977C708.036 357.439 709.049 358.297 709.887 359.484C710.724 360.671 711.342 362.188 711.782 363.969C712.223 365.75 712.399 367.663 712.399 369.707C712.399 371.752 712.223 373.797 711.782 375.842C711.386 377.886 710.724 379.799 709.887 381.58C709.049 383.361 707.992 384.878 706.758 386.197C705.523 387.516 704.069 388.44 702.438 388.967L694.945 391.408L695.033 359.484L702.526 357.043ZM702.438 382.767C703.364 382.437 704.201 381.91 704.906 381.184C705.612 380.393 706.229 379.469 706.669 378.414C707.154 377.359 707.507 376.171 707.727 374.918C707.948 373.665 708.08 372.412 708.08 371.093C708.08 369.839 707.948 368.652 707.727 367.531C707.463 366.41 707.11 365.552 706.669 364.761C706.185 364.035 705.612 363.507 704.906 363.178C704.201 362.848 703.408 362.848 702.482 363.178L699.353 364.167L699.309 383.757L702.438 382.767Z" stroke="white" stroke-width="0.2891" stroke-miterlimit="10"/>
<path d="M725.358 362.518L727.341 355.526L729.766 348.139L734.35 346.688V347.677L727.385 368.059L727.341 380.854L723.022 382.24L723.066 369.444L716.146 353.548V352.558L720.774 351.041L723.286 357.043L725.182 362.518H725.358Z" stroke="white" stroke-width="0.2891" stroke-miterlimit="10"/>
<path d="M619.574 399.784C619.574 397.146 619.882 394.706 620.455 392.463C621.028 390.221 621.822 388.242 622.791 386.527C623.761 384.812 624.863 383.427 626.097 382.305C627.331 381.184 628.609 380.459 629.932 380.063C630.945 379.733 631.959 379.601 632.973 379.733C633.987 379.865 634.912 380.261 635.75 380.854C636.587 381.514 637.337 382.437 637.954 383.691C638.571 384.944 639.011 386.461 639.232 388.374L635.045 389.693C634.604 387.978 633.943 386.923 633.061 386.395C632.18 385.867 631.122 385.801 629.932 386.197C629.05 386.461 628.213 386.989 627.463 387.714C626.714 388.44 626.097 389.363 625.568 390.418C625.039 391.474 624.643 392.727 624.334 394.046C624.025 395.431 623.893 396.816 623.893 398.333C623.893 399.719 624.025 400.972 624.29 402.093C624.554 403.214 624.951 404.204 625.48 404.929C626.009 405.721 626.626 406.248 627.331 406.512C628.08 406.842 628.874 406.842 629.799 406.512C631.078 406.116 632.18 405.259 633.105 404.006C634.031 402.753 634.692 401.104 635.045 399.059L639.188 397.74C638.967 399.916 638.571 401.829 637.954 403.544C637.337 405.259 636.587 406.776 635.75 407.963C634.912 409.217 633.943 410.206 632.929 410.997C631.915 411.789 630.857 412.383 629.799 412.712C628.477 413.108 627.199 413.174 625.965 412.91C624.731 412.58 623.629 411.921 622.659 410.8C621.689 409.744 620.94 408.293 620.367 406.38C619.882 404.665 619.574 402.423 619.574 399.784Z" fill="white"/>
<path d="M649.37 400.774L647.783 406.578L643.287 408.029V407.106L652.631 372.808L654.615 372.148L663.783 400.51V401.433L659.331 402.885L657.744 398.136L649.37 400.774ZM650.78 394.574L656.378 392.793L653.601 383.163L650.78 394.574Z" fill="white"/>
<path d="M674.008 379.865L673.964 398.135L669.689 399.521L669.777 367.399L671.144 366.937L682.427 381.514L682.471 363.375L686.791 361.99L686.747 394.046L685.468 394.442L674.008 379.865Z" fill="white"/>
<path d="M702.526 357.043C704.157 356.516 705.567 356.516 706.802 356.977C708.036 357.439 709.049 358.297 709.887 359.484C710.724 360.671 711.342 362.188 711.782 363.969C712.223 365.75 712.399 367.663 712.399 369.707C712.399 371.752 712.223 373.797 711.782 375.842C711.386 377.886 710.724 379.799 709.887 381.58C709.049 383.361 707.992 384.878 706.758 386.197C705.523 387.516 704.069 388.44 702.438 388.967L694.945 391.408L695.033 359.484L702.526 357.043ZM702.438 382.767C703.364 382.437 704.201 381.91 704.906 381.184C705.612 380.393 706.229 379.469 706.669 378.414C707.154 377.359 707.507 376.171 707.727 374.918C707.948 373.665 708.08 372.412 708.08 371.093C708.08 369.839 707.948 368.652 707.727 367.531C707.463 366.41 707.11 365.552 706.669 364.761C706.185 364.035 705.612 363.507 704.906 363.178C704.201 362.848 703.408 362.848 702.482 363.178L699.353 364.167L699.309 383.757L702.438 382.767Z" fill="white"/>
<path d="M725.358 362.518L727.341 355.526L729.766 348.139L734.35 346.688V347.677L727.385 368.059L727.341 380.854L723.022 382.24L723.066 369.444L716.146 353.548V352.558L720.774 351.041L723.286 357.043L725.182 362.518H725.358Z" fill="white"/>
<path d="M588.798 54.113V54.0872C588.875 50.5409 591.774 47.59 595.347 47.6677C598.97 47.7453 601.714 50.748 601.662 54.2942V54.3201C601.585 57.8664 598.686 60.8172 595.114 60.7396C591.49 60.6619 588.72 57.6593 588.798 54.113ZM600.912 54.2942V54.2683C600.964 51.0845 598.582 48.4183 595.321 48.3666C592.111 48.3148 589.574 50.9033 589.522 54.0872V54.113C589.471 57.2969 591.852 59.963 595.114 60.0148C598.349 60.0925 600.86 57.4781 600.912 54.2942ZM592.499 50.5927L595.761 50.6444C597.417 50.6703 598.608 51.421 598.556 53.0259C598.53 54.113 597.961 54.8637 597.107 55.1743L598.686 57.6075L596.46 57.5557L595.139 55.4591L594.311 55.4332L594.285 57.504L592.37 57.4781L592.499 50.5927ZM595.476 53.7506C596.123 53.6471 596.434 53.2329 596.356 52.767C596.278 52.2493 595.864 52.0164 595.191 52.1199L593.975 52.327L594.259 53.9577L595.476 53.7506Z" fill="white"/>
</svg>
