<svg width="110" height="40" viewBox="0 0 110 40" fill="none" xmlns="http://www.w3.org/2000/svg">
<path d="M19.969 0H19.9689C8.94038 0 0 8.94038 0 19.9689V19.969C0 30.9975 8.94038 39.9379 19.9689 39.9379H19.969C30.9975 39.9379 39.9379 30.9975 39.9379 19.969V19.9689C39.9379 8.94038 30.9975 0 19.969 0Z" fill="white"/>
<path d="M19.9689 0C16.0194 0 12.1586 1.17115 8.87479 3.36536C5.5909 5.55957 3.03146 8.67828 1.52005 12.3271C0.00865187 15.976 -0.386799 19.991 0.383706 23.8646C1.15421 27.7382 3.05606 31.2965 5.84877 34.089C8.64147 36.8818 12.1996 38.7835 16.0732 39.554C19.9467 40.3245 23.9618 39.9291 27.6107 38.4177C31.2595 36.9063 34.3781 34.3469 36.5724 31.0631C38.7666 27.7791 39.9379 23.9184 39.9379 19.9689C39.9379 14.6728 37.8341 9.59365 34.089 5.84877C30.3442 2.10386 25.265 0 19.9689 0ZM35.1095 22.2274C34.3105 20.51 33.5476 18.8866 33.5476 17.1733C33.5476 14.9387 35.0114 13.7007 36.1336 13.0796C37.853 17.1158 37.9989 21.6494 36.5431 25.7878C36.155 24.5668 35.6759 23.3766 35.1095 22.2274ZM19.3698 15.4619C19.9869 19.3698 20.1127 21.1431 16.6201 22.2194C10.8431 23.9966 6.91522 26.7943 5.53739 29.9852C4.41378 28.374 3.56931 26.5851 3.03927 24.6936C7.21877 23.3496 10.27 19.921 11.3503 15.2462C12.5485 10.0543 13.3472 9.637 14.5573 8.992C15.9092 8.27111 17.7384 7.29464 20.2984 2.40226C21.6196 2.42694 22.9339 2.60044 24.2163 2.91947C23.0732 3.4877 22.0512 4.27233 21.207 5.22987C19.913 6.70355 19.0982 8.55267 18.9705 10.298C18.8447 12.1151 19.1242 13.8944 19.3698 15.4619ZM17.4708 2.57399C15.6596 5.68915 14.4415 6.34012 13.4331 6.87729C11.582 7.85776 10.3838 8.76234 9.01595 14.7071C8.14333 18.4912 5.82095 21.197 2.55603 22.3332C2.45028 21.5495 2.39691 20.7597 2.39628 19.9689C2.4015 15.7425 3.9275 11.6592 6.69538 8.46525C9.46325 5.27132 13.2881 3.18015 17.4708 2.57399ZM16.2367 37.1422C14.8595 36.8441 13.5237 36.3793 12.2589 35.7582C13.1056 33.8613 14.7151 31.1076 16.8138 30.1669C17.8562 29.7036 18.9245 29.7296 20.0807 30.243C20.9534 30.6302 20.9933 31.0158 21.0093 31.1615C21.167 32.6233 18.4293 35.4189 16.2367 37.1422ZM19.4797 37.5416C21.3967 35.7802 23.6352 33.2004 23.3936 30.9219C23.2997 30.0531 22.8205 28.8531 21.0552 28.0683C19.29 27.2835 17.5147 27.2476 15.8413 27.9904C13.0018 29.2445 11.1267 32.4874 10.1841 34.5461C9.18245 33.8706 8.25239 33.0945 7.40846 32.2298C7.68802 28.7054 12.6643 25.9376 17.331 24.4998C22.9603 22.7685 22.3232 18.6849 21.7461 15.0805C21.5065 13.5689 21.2589 12.0053 21.3687 10.4617C21.6383 6.70755 25.2427 4.72662 27.8027 4.23141C28.5617 4.61021 29.2916 5.04404 29.9874 5.52938C28.1242 6.95916 25.4184 10.0084 25.5662 15.5997C25.6081 17.2132 26.1253 18.7448 26.6725 20.3663C27.8386 23.8289 29.0447 27.4093 26.1133 32.765C24.7594 35.2352 23.5813 36.2136 21.85 37.4336C21.2272 37.5004 20.6012 37.5337 19.9749 37.5337C19.8052 37.5416 19.6414 37.5416 19.4797 37.5416ZM26.7583 36.1776C27.3015 35.4657 27.7875 34.7118 28.212 33.9233C31.6487 27.6489 30.1469 23.1899 28.941 19.6075C28.4318 18.0998 27.9924 16.7978 27.9605 15.5438C27.8247 10.4138 30.5744 7.97556 31.9182 7.09494C33.2345 8.31538 34.3573 9.72946 35.247 11.2884C33.4899 12.2489 31.5509 14.128 31.5509 17.1733C31.5509 19.3279 32.4395 21.2329 33.2982 23.0721C34.1947 24.9931 35.0455 26.8242 35.0435 28.9889C33.1145 32.2036 30.2129 34.7214 26.7583 36.1776Z" fill="#12AC12"/>
<path d="M47.2988 29.2931C47.2988 29.9557 47.8512 30.5354 48.5414 30.5354L49.0106 30.3421L48.983 30.5354H56.1606C56.7682 30.5354 57.2927 30.0109 57.2927 29.4036C57.2927 28.7687 56.7682 28.2716 56.1606 28.2716H49.7836V10.631C49.7836 9.94078 49.2315 9.38867 48.5414 9.38867C47.8512 9.38867 47.2988 9.94078 47.2988 10.631V29.2931Z" fill="#12AC12"/>
<path d="M69.6332 23.2473C69.6332 26.6429 68.3907 28.5201 65.4093 28.5201C62.5105 28.5201 61.2406 26.6429 61.2406 23.2473V10.631C61.2406 9.94078 60.6886 9.38867 59.9984 9.38867C59.3082 9.38867 58.7559 9.94078 58.7559 10.631V22.9712C58.7559 27.7196 60.8816 30.8392 65.4093 30.8392C69.9091 30.8392 72.1177 27.8024 72.1177 22.9712V10.631C72.1177 9.94078 71.5656 9.38867 70.8754 9.38867C70.1853 9.38867 69.6332 9.94078 69.6332 10.631V23.2473Z" fill="#12AC12"/>
<path d="M81.8647 30.5345C86.3921 30.5345 88.849 27.6358 88.849 22.8598V17.4765C88.849 12.6729 86.3921 9.69141 81.8647 9.69141H77.5303C76.8402 9.69141 76.2881 10.2435 76.2881 10.9337V29.2922C76.2881 29.9548 76.8402 30.5345 77.5303 30.5345H81.8647ZM81.8647 12.0104C84.5149 12.0104 86.3369 13.6392 86.3369 17.2004V23.1083C86.3369 26.5039 84.7908 28.2157 81.8647 28.2157H78.7726V12.0104H81.8647Z" fill="#12AC12"/>
<path d="M95.0587 10.631C95.0587 9.94078 94.5066 9.38867 93.8165 9.38867C93.1263 9.38867 92.5742 9.94078 92.5742 10.631V29.5141C92.5742 30.2043 93.1263 30.784 93.8165 30.784C94.5066 30.784 95.0587 30.2043 95.0587 29.5141V10.631Z" fill="#12AC12"/>
<path d="M98.654 28.7389C98.654 29.2633 99.068 29.7049 99.7029 30.0087C100.642 30.5056 102.132 30.7818 103.458 30.7818C107.378 30.7818 110 28.7389 110 24.653C110 20.9537 107.875 19.5181 105.086 18.9384L104.01 18.7176C101.939 18.331 100.918 17.6961 100.918 15.3219C100.918 12.8925 102.05 11.6502 104.727 11.6502C106.025 11.6502 106.826 12.0091 107.405 12.2576C107.736 12.3956 107.985 12.506 108.234 12.506C108.841 12.506 109.338 12.0919 109.338 11.3465C109.338 10.9877 109.089 10.6564 108.73 10.3803C107.875 9.77296 106.191 9.41406 104.755 9.41406C101.028 9.41406 98.4883 11.4846 98.4883 15.3771C98.4883 18.7728 100.393 20.374 103.016 20.9537L104.093 21.1746C106.411 21.6439 107.543 22.3616 107.543 24.7082C107.543 27.2204 106.163 28.5732 103.816 28.5732C101.718 28.5732 100.697 27.8002 100.089 27.7174C99.8134 27.6622 99.5648 27.6897 99.3442 27.8002C98.9299 27.9106 98.654 28.297 98.654 28.7389Z" fill="#12AC12"/>
</svg>
