<svg xmlns="http://www.w3.org/2000/svg" width="28" height="28" viewBox="0 0 28 28" fill="none">
<path fill-rule="evenodd" clip-rule="evenodd" d="M28 14C28 21.732 21.732 28 14 28C6.26801 28 0 21.732 0 14C0 6.26801 6.26801 0 14 0C21.732 0 28 6.26801 28 14ZM21.2866 11.9531C22.4164 11.9531 23.3334 12.87 23.3334 13.9999C23.3334 14.835 22.8258 15.5554 22.1545 15.8829C22.1872 16.0794 22.2036 16.2759 22.2036 16.4888C22.2036 19.6326 18.5521 22.1706 14.0328 22.1706C9.51352 22.1706 5.86205 19.6326 5.86205 16.4888C5.86205 16.2759 5.87843 16.063 5.91118 15.8665C5.19071 15.5391 4.69948 14.835 4.69948 13.9999C4.69948 12.87 5.61644 11.9531 6.74626 11.9531C7.28661 11.9531 7.79422 12.1823 8.15445 12.5262C9.56264 11.4946 11.5112 10.856 13.689 10.7905L14.7205 5.91098C14.7533 5.81274 14.8024 5.73087 14.8843 5.68174C14.9661 5.63262 15.0644 5.61625 15.1626 5.63262L18.5521 6.35309C18.7814 5.86186 19.2726 5.53438 19.8457 5.53438C20.648 5.53438 21.303 6.18935 21.303 6.99169C21.303 7.79403 20.648 8.449 19.8457 8.449C19.0597 8.449 18.4211 7.82677 18.3884 7.05718L15.3591 6.41859L14.4258 10.7905C16.5545 10.8724 18.4866 11.5274 19.8784 12.5262C20.2387 12.166 20.7299 11.9531 21.2866 11.9531ZM10.7907 13.9999C9.98837 13.9999 9.3334 14.6548 9.3334 15.4572C9.3334 16.2595 9.98837 16.9145 10.7907 16.9145C11.593 16.9145 12.248 16.2595 12.248 15.4572C12.248 14.6548 11.593 13.9999 10.7907 13.9999ZM14.0164 20.3695C14.5732 20.3695 16.4726 20.304 17.4714 19.3051C17.6188 19.1578 17.6188 18.9285 17.5042 18.7648C17.3568 18.6174 17.1112 18.6174 16.9638 18.7648C16.3252 19.387 14.9989 19.6162 14.0328 19.6162C13.0667 19.6162 11.724 19.387 11.1018 18.7648C10.9545 18.6174 10.7088 18.6174 10.5615 18.7648C10.4141 18.9122 10.4141 19.1578 10.5615 19.3051C11.5439 20.2876 13.4597 20.3695 14.0164 20.3695ZM15.7521 15.4572C15.7521 16.2595 16.4071 16.9145 17.2094 16.9145C18.0118 16.9145 18.6667 16.2595 18.6667 15.4572C18.6667 14.6548 18.0118 13.9999 17.2094 13.9999C16.4071 13.9999 15.7521 14.6548 15.7521 15.4572Z" fill="white" style="&#10;    fill: inherit;&#10;"/>
</svg>