<svg xmlns="http://www.w3.org/2000/svg" width="28" height="28" viewBox="0 0 28 28" fill="none">
<path fill-rule="evenodd" clip-rule="evenodd" d="M28 14C28 21.732 21.732 28 14 28C6.26801 28 0 21.732 0 14C0 6.26801 6.26801 0 14 0C21.732 0 28 6.26801 28 14ZM14.5024 10.3357C13.1407 10.9021 10.4192 12.0743 6.33792 13.8525C5.67518 14.116 5.32801 14.3739 5.29641 14.626C5.243 15.052 5.77654 15.2198 6.5031 15.4483C6.60193 15.4793 6.70433 15.5115 6.80931 15.5457C7.52412 15.778 8.48568 16.0499 8.98555 16.0607C9.43898 16.0704 9.94506 15.8835 10.5038 15.4998C14.3171 12.9258 16.2855 11.6247 16.4091 11.5967C16.4963 11.5769 16.6171 11.552 16.6989 11.6248C16.7808 11.6975 16.7728 11.8353 16.7641 11.8723C16.7112 12.0976 14.6169 14.0447 13.533 15.0524C13.1951 15.3665 12.9555 15.5893 12.9065 15.6402C12.7967 15.7542 12.6849 15.862 12.5774 15.9657C11.9133 16.6058 11.4153 17.0859 12.6049 17.8699C13.1766 18.2466 13.6341 18.5581 14.0905 18.869C14.5889 19.2084 15.086 19.5469 15.7293 19.9686C15.8931 20.076 16.0496 20.1876 16.2021 20.2962C16.7821 20.7098 17.3033 21.0813 17.9471 21.022C18.3212 20.9876 18.7076 20.6358 18.9038 19.5867C19.3676 17.1073 20.2793 11.7351 20.49 9.52142C20.5084 9.32747 20.4852 9.07925 20.4666 8.97029C20.4479 8.86133 20.4089 8.70608 20.2673 8.59115C20.0996 8.45504 19.8406 8.42634 19.7248 8.42838C19.1982 8.43766 18.3904 8.71857 14.5024 10.3357Z" fill="white" style="&#10;    fill: inherit;&#10;"/>
</svg>