<svg xmlns="http://www.w3.org/2000/svg" width="27" height="23" viewBox="0 0 27 23" fill="none">
<path d="M8.49393 22.4686C18.6801 22.4686 24.2531 14.0274 24.2531 6.70944C24.2531 6.47214 24.2478 6.22956 24.2372 5.99225C25.3214 5.20824 26.2569 4.23713 27 3.12456C25.9903 3.57377 24.9183 3.86715 23.8206 3.99468C24.9764 3.30187 25.8418 2.2135 26.2564 0.931335C25.1691 1.57572 23.98 2.03029 22.7401 2.27553C21.9047 1.38785 20.8001 0.800103 19.5971 0.603155C18.3942 0.406206 17.1598 0.611029 16.085 1.18596C15.0101 1.76088 14.1545 2.67389 13.6506 3.78382C13.1466 4.89375 13.0224 6.13879 13.297 7.32643C11.0953 7.21595 8.94143 6.64401 6.97498 5.64771C5.00853 4.6514 3.2734 3.25296 1.88209 1.54305C1.17495 2.76225 0.958564 4.20495 1.27691 5.57795C1.59526 6.95095 2.42445 8.15123 3.59596 8.93483C2.71646 8.90691 1.85622 8.67011 1.08633 8.24401V8.31257C1.08554 9.59202 1.52786 10.8323 2.3381 11.8225C3.14834 12.8127 4.27649 13.4917 5.53078 13.7442C4.71606 13.9671 3.86098 13.9996 3.0317 13.8391C3.38564 14.9395 4.07427 15.9018 5.00149 16.592C5.92871 17.2821 7.04826 17.6655 8.20389 17.6887C6.24198 19.2298 3.81845 20.0657 1.32363 20.0618C0.881198 20.0611 0.439199 20.034 0 19.9806C2.53446 21.6066 5.48272 22.4702 8.49393 22.4686Z" fill="white" style="&#10;    fill: inherit;&#10;"/>
</svg>